<?xml version="1.0" encoding="UTF-8" standalone="no"?>
<!-- Created with Inkscape (http://www.inkscape.org/) -->

<svg
   width="64"
   height="64"
   viewBox="0 0 16.933334 16.933333"
   version="1.1"
   id="svg1"
   inkscape:version="1.4 (e7c3feb1, 2024-10-09)"
   sodipodi:docname="favicon.svg"
   inkscape:export-filename="favicon-16.png"
   inkscape:export-xdpi="24"
   inkscape:export-ydpi="24"
   xmlns:inkscape="http://www.inkscape.org/namespaces/inkscape"
   xmlns:sodipodi="http://sodipodi.sourceforge.net/DTD/sodipodi-0.dtd"
   xmlns="http://www.w3.org/2000/svg"
   xmlns:svg="http://www.w3.org/2000/svg">
  <sodipodi:namedview
     id="namedview1"
     pagecolor="#ffffff"
     bordercolor="#000000"
     borderopacity="0.25"
     inkscape:showpageshadow="2"
     inkscape:pageopacity="0.0"
     inkscape:pagecheckerboard="0"
     inkscape:deskcolor="#d1d1d1"
     inkscape:document-units="mm"
     showgrid="false"
     inkscape:zoom="6.2076502"
     inkscape:cx="65.080986"
     inkscape:cy="73.77993"
     inkscape:window-width="5120"
     inkscape:window-height="1387"
     inkscape:window-x="0"
     inkscape:window-y="25"
     inkscape:window-maximized="0"
     inkscape:current-layer="layer1" />
  <defs
     id="defs1" />
  <g
     inkscape:label="Layer 1"
     inkscape:groupmode="layer"
     id="layer1"
     transform="translate(-43.291673,-85.521023)">
    <g
       id="g4"
       transform="matrix(0.02725686,0,0,0.02725686,39.094481,85.182457)"
       style="stroke-width:6.37601;stroke-dasharray:none">
	<path
   fill="#ffc0d9"
   d="m 549.672,316.196 c 15.68,-3.559 30.878,-9.156 45.037,-16.718 30.358,4.819 59.976,25.354 76.285,51.413 16.273,26.059 20.684,59.234 11.714,88.628 -5.45,17.904 -15.3003,30.5738 -28.97198,42.1519 -4.52688,3.83367 -11.9129,4.23071 -16.03882,8.72921 -4.45172,4.85374 -12.88154,11.53336 -20.1182,15.69289 7.339,-15.68 3.263,-35.14 -7.414,-48.818 -10.637,-13.641 -26.948,-22.018 -43.739,-26.281 -11.381,-2.889 -23.07,-4.045 -34.809,-4.648 -5.582,-0.287 -11.175,-0.46 -16.753,-0.615 h -0.036 c 0.371,-1.186 0.704,-2.409 1.001,-3.633 3.929,-15.717 1.111,-32.545 -4.523,-47.706 -2.78,-7.45 -6.375,-15.457 -11.417,-21.684 -4.559,-5.634 -7.969,-12.64 -14.715,-16.051 -2.076,-1.075 -4.3,-1.779 -6.599,-2.149 l 0.261,-1.965 c 2.78,-3.485 6.3,-6.302 10.23,-8.377 9.267,-4.893 18.646,-3.262 28.617,-3.707 10.788,-0.445 21.499,-1.891 31.989,-4.263 z M 384.573,152.542 c 30.174,34.807 41.404,78.769 55.23,121.508 h 0.038 c -1.113,-13.678 -0.074,-27.689 2.483,-41.405 7.672,-41.219 30.803,-79.584 64.423,-104.753 4.188,-3.151 8.525,-6.079 13.012,-8.748 l -0.038,-0.037 c 2.706,-8.006 4.782,-14.086 7.488,-22.092 2.224,-6.598 4.82,-13.641 10.565,-17.533 5.783,-3.892 15.605,-2.187 17.088,4.633 3.374,-13.048 -6.784,-26.615 -19.386,-31.359 -12.603,-4.708 -26.689,-2.632 -39.735,0.63 -13.048,3.262 -26.096,7.71 -39.551,7.488 -10.454,-0.148 -20.684,-3.077 -31.138,-3.262 -18.644,-0.333 -37.252,8.785 -48.411,23.798 -11.156,14.975 -14.566,35.436 -8.858,53.229 l -0.704,0.816 c 6.299,5.189 12.156,10.934 17.494,17.087 z m -17.718,182.744 c -10.565,1.334 -21.203,1.928 -31.879,1.334 -21.091,-1.149 -42.628,-7.599 -59.493,-19.942 h -0.038 c -21.87,0.89 -46.15,20.387 -56.344,39.773 -10.194,19.386 -13.158,41.664 -15.308,63.46 -2.186,21.796 -3.817,44.036 -11.861,64.386 17.68,4.411 35.363,8.785 53.042,13.196 11.158,2.78 22.463,5.56 33.955,5.3 11.453,-0.223 23.352,-3.892 31.211,-12.233 l 0.742,-0.185 c -15.087,-58.232 5.671,-121.691 55.973,-155.089 z"
   id="path1-0"
   style="fill:#eb8d78;fill-opacity:1;stroke:#000000;stroke-width:8.73514;stroke-linecap:round;stroke-linejoin:round;stroke-dasharray:none;stroke-opacity:1"
   sodipodi:nodetypes="ccccssccssccccccccscccccccccccccsccccccccccsccccccc" />

	<path
   id="path2"
   style="fill:#61b3b5;fill-opacity:1;stroke:#000000;stroke-width:8.73514;stroke-linecap:round;stroke-linejoin:round;stroke-dasharray:none;stroke-opacity:1"
   d="m 314.14808,164.42978 c -0.313,1.204 -0.77445,2.49724 -1.64745,3.72324 -1.46599,2.07099 -3.34556,3.30624 -5.44756,3.71224 0.907,4.533 1.91227,9.04006 3.05327,13.52006 4.074,16.00898 13.37862,30.17244 22.84461,43.61343 9.44799,13.41598 20.05628,26.00544 31.45527,37.80343 21.56597,22.32197 45.97306,42.03335 72.26803,58.51733 5.01699,5.403 9.977,10.58385 14.84899,15.59584 4.823,0.517 9.34841,-2.68572 13.93741,-4.70072 0.333,-0.148 0.6974,-0.3023 1.0324,-0.4503 1.765,-0.702 3.62348,-1.13089 5.50247,-1.36189 -0.038,-0.629 -0.13247,-1.26307 -0.34047,-1.88907 -0.842,-2.535 -1.59741,-5.10311 -2.31741,-7.67711 8.65499,-26.00697 24.43054,-48.78943 38.38553,-72.02641 6.78199,-11.29598 13.79754,-22.86602 24.18453,-30.97201 0.7,-0.547 1.42973,-1.12329 2.10873,-1.74629 -2.70799,-0.112 -4.98148,-1.31332 -6.78748,-3.66832 -0.898,-1.169 -1.47709,-2.44118 -1.87809,-3.75618 -5.18,3.365 -8.98513,10.13535 -12.18013,14.61835 -5.24899,7.36299 -10.39708,14.80245 -15.44207,22.30644 -9.87999,14.69399 -19.35596,29.65252 -28.43495,44.85451 -0.74,1.23799 -1.51183,2.51781 -2.69083,3.34981 -1.178,0.832 -2.89074,1.08765 -4.04174,0.21966 -1.109,-0.837 -1.35268,-2.37419 -1.49368,-3.75618 -2.183,-21.37098 -0.1889,-43.1442 5.7441,-63.78917 -0.919,0.205 -1.83872,0.35145 -2.76772,0.35145 -1.80999,0 -3.61473,-0.42482 -5.33773,-1.40582 -0.293,-0.167 -0.52475,-0.41507 -0.80175,-0.60407 -7.395,13.97999 -9.60574,29.61164 -9.85174,45.42563 -0.244,15.71298 -0.77912,30.55923 6.53488,45.04121 0.87099,1.725 1.76826,3.97063 0.47226,5.40363 -0.934,1.032 -2.64402,1.00251 -3.85502,0.31851 -1.213,-0.684 -2.0496,-1.86634 -2.8446,-3.00934 -4.89199,-7.04099 -9.63805,-14.18444 -14.81604,-21.02143 -2.648,-3.497 -5.44412,-6.85525 -8.31412,-10.17024 -2.503,-2.891 -4.14456,-6.35265 -6.74355,-9.26964 -3.529,-3.962 -7.11262,-7.87258 -10.57662,-11.89457 -6.92099,-8.033 -13.54198,-16.35294 -19.37398,-25.21694 -12.60999,-19.16998 -21.38912,-40.83285 -25.74411,-63.36083 -0.094,0.053 -0.17658,0.12573 -0.27458,0.17573 -1.73,0.901 -3.4839,1.29599 -5.2279,1.29599 -1.242,0 -2.47928,-0.2261 -3.69028,-0.5821 0.548,1.962 1.15123,3.91795 1.79023,5.84295 5.34499,16.12498 11.65475,31.92873 18.87974,47.30371 3.575,7.60399 7.37336,15.10118 11.38936,22.48217 1.645,3.025 7.02847,8.63594 5.50247,12.30094 -2.44299,5.872 -9.02366,-0.93224 -11.83965,-3.07523 -4.221,-3.214 -8.21842,-6.71983 -11.99342,-10.44482 -7.58499,-7.48199 -14.28176,-15.84771 -20.16476,-24.7227 -8.49799,-12.82199 -15.35377,-26.64688 -21.44977,-40.74687 -2.95599,-6.84199 -5.35447,-14.04198 -8.73147,-20.66997 -0.976,-1.912 -1.90661,-3.84904 -2.83361,-5.78804 z"
   sodipodi:nodetypes="cccccccccccccccccccccccccsccccccccscccccsccccccccccc" />

	<path
   fill="#ffb934"
   d="m 458.704,229.416 c -0.293,-0.167 -0.523,-0.41 -0.8,-0.599 -3.184,-2.168 -5.289,-5.641 -5.734,-9.794 -0.503,-4.706 1.151,-9.271 4.423,-12.206 1.578,-1.412 3.377,-2.375 4.97,-3.222 1.77,-0.945 3.301,-1.759 4.116,-2.907 0.626,-0.883 0.988,-2.223 1.368,-3.638 0.221,-0.814 0.442,-1.633 0.713,-2.422 1.509,-4.424 4.604,-7.218 8.275,-7.475 3.765,-0.221 7.287,2.284 8.72,6.161 1.039,2.795 0.869,5.622 0.605,8.275 -0.659,6.624 -1.795,13.567 -5.651,19.461 -2.588,3.957 -7.578,8.239 -12.894,9.424 -0.919,0.205 -1.844,0.346 -2.773,0.346 -1.808,0.001 -3.614,-0.423 -5.338,-1.404 z M 362.52,181.235 c 0.098,-0.051 0.181,-0.125 0.275,-0.178 4.715,-2.638 7.544,-8.856 6.447,-14.348 -0.818,-4.127 -3.515,-6.628 -5.687,-8.641 -1.144,-1.061 -2.226,-2.063 -2.914,-3.164 -1.144,-1.824 -1.289,-4.438 -1.441,-7.207 -0.054,-0.948 -0.105,-1.893 -0.192,-2.824 -0.633,-6.74 -3.913,-11.504 -8.771,-12.738 -3.309,-0.847 -6.994,0.148 -9.832,2.65 -1.984,1.748 -3.526,4.159 -4.709,7.374 -3.037,8.253 -2.335,17.795 1.879,25.517 2.507,4.6 8.88,12.175 16.027,14.278 1.211,0.357 2.442,0.574 3.683,0.574 1.746,0 3.505,-0.391 5.235,-1.293 z m -50.012,-13.078 c 0.872,-1.225 1.327,-2.524 1.64,-3.728 0.139,-0.535 0.261,-1.057 0.362,-1.536 l 3.547,-16.633 c 0.666,-3.102 1.415,-6.621 0.883,-10.306 -0.677,-4.702 -3.479,-8.547 -7.323,-10.031 -6.338,-2.458 -12.456,1.886 -15.761,6.338 -5.408,7.283 -7.269,16.872 -4.985,25.654 v 0.004 c 1.079,4.127 6.7,12.807 13.162,13.987 0.525,0.094 1.043,0.145 1.549,0.145 0.505,0 0.99,-0.094 1.473,-0.187 2.103,-0.405 3.987,-1.636 5.453,-3.707 z m 221.512,51.934 c 0.136,0.006 0.257,0.044 0.395,0.044 2.914,0 6.324,-1.256 10.208,-3.772 10.128,-6.559 16.232,-18.44 15.551,-30.262 -0.123,-2.157 -0.507,-5.339 -2.382,-8.109 -2.186,-3.214 -5.987,-4.905 -9.415,-4.185 -3.634,0.746 -5.803,3.725 -7.099,5.502 -1.332,1.835 -2.737,3.656 -4.148,5.491 -3.345,4.34 -6.802,8.833 -9.535,13.69 -2.266,4.023 -3.701,9.429 -2.248,14.178 0.402,1.315 0.985,2.59 1.882,3.758 1.806,2.357 4.083,3.553 6.791,3.665 z"
   id="path3"
   style="stroke-width:6.37601;stroke-dasharray:none" />

	<path
   fill="#ffdce8"
   d="m 515.83,422.098 c 3.929,-15.717 1.111,-32.545 -4.523,-47.706 -2.78,-7.45 -6.375,-15.457 -11.417,-21.684 -4.559,-5.634 -7.969,-12.64 -14.715,-16.051 -2.076,-1.075 -4.3,-1.779 -6.599,-2.149 l 0.261,-1.965 c 2.78,-3.485 6.3,-6.302 10.23,-8.377 9.267,-4.893 18.646,-3.262 28.617,-3.707 10.787,-0.445 21.499,-1.89 31.989,-4.263 15.68,-3.559 30.878,-9.156 45.037,-16.718 4.633,-2.447 9.156,-5.152 13.567,-8.007 18.941,-12.418 35.399,-28.356 54.268,-40.923 18.867,-12.528 41.404,-21.795 63.793,-18.348 22.389,3.41 43.258,23.019 41.737,45.63 5.004,-20.128 3.189,-41.812 -4.744,-60.939 C 746.538,166.665 708.137,117.735 657.576,101.944 612.02,87.71 560.496,94.383 519.76,119.143 c -4.487,2.669 -8.823,5.597 -13.012,8.748 -33.62,25.169 -56.751,63.534 -64.423,104.753 -2.557,13.715 -3.596,27.727 -2.483,41.405 h -0.038 c -13.826,-42.739 -25.057,-86.701 -55.23,-121.508 -5.338,-6.153 -11.194,-11.899 -17.495,-17.088 -19.573,-16.161 -43.334,-27.096 -68.465,-28.505 -33.287,-1.89 -68.242,15.124 -82.921,45.037 l 0.371,2.187 c -18.127,3.04 -35.25,11.788 -46.335,26.244 -14.494,19.053 -15.754,48.484 0.445,66.129 -3.967,-11.899 5.56,-25.391 17.718,-28.394 12.159,-3.002 25.207,2.595 34.065,11.491 8.822,8.896 14.161,20.609 18.682,32.286 4.523,11.713 8.489,23.76 15.308,34.288 5.191,8.043 11.862,14.864 19.499,20.461 h 0.038 c 16.865,12.343 38.402,18.793 59.493,19.942 10.675,0.593 21.314,0 31.879,-1.334 -50.302,33.398 -71.06,96.857 -55.972,155.091 0.333,1.371 0.704,2.78 1.111,4.152 17.126,59.345 71.29283,97.35841 133.06086,98.05231 11.87909,5.8157 28.5399,5.25602 30.59314,-8.05231 -0.186,-4.115 -2.299,-7.895 -3.931,-11.676 -10.675,-24.761 -1.777,-53.526 10.565,-77.509 9.544,-18.573 20.418,-36.655 27.902,-55.987 1.732,-4.474 3.341,-8.994 4.644,-13.626 0.371,-1.185 0.704,-2.408 1.001,-3.632 z M 364.41,266.799 c -11.399,-11.798 -22.005,-24.385 -31.453,-37.801 -9.466,-13.441 -18.776,-27.598 -22.851,-43.607 -1.14,-4.48 -2.143,-8.993 -3.05,-13.526 -0.483,0.093 -0.968,0.187 -1.473,0.187 -0.507,0 -1.024,-0.051 -1.549,-0.145 -6.461,-1.18 -12.083,-9.861 -13.162,-13.987 v -0.004 c -2.284,-8.782 -0.424,-18.371 4.985,-25.654 3.305,-4.452 9.423,-8.796 15.761,-6.338 3.844,1.484 6.646,5.328 7.323,10.031 0.532,3.685 -0.217,7.204 -0.883,10.306 l -3.547,16.633 c -0.101,0.479 -0.223,1.001 -0.362,1.536 0.927,1.938 1.862,3.872 2.838,5.785 3.377,6.628 5.777,13.829 8.733,20.671 6.096,14.099 12.952,27.925 21.45,40.747 5.882,8.876 12.57,17.245 20.156,24.727 3.776,3.726 7.776,7.229 11.996,10.442 2.816,2.143 9.394,8.952 11.837,3.08 1.526,-3.665 -3.857,-9.274 -5.502,-12.299 -4.016,-7.381 -7.814,-14.88 -11.388,-22.485 -7.225,-15.375 -13.537,-31.18 -18.881,-47.305 -0.639,-1.925 -1.234,-3.877 -1.783,-5.839 -7.147,-2.104 -13.52,-9.678 -16.027,-14.278 -4.214,-7.721 -4.916,-17.263 -1.879,-25.517 1.184,-3.214 2.726,-5.625 4.709,-7.374 2.838,-2.501 6.523,-3.497 9.832,-2.65 4.858,1.234 8.138,5.998 8.771,12.738 0.087,0.93 0.138,1.875 0.192,2.824 0.152,2.769 0.297,5.383 1.441,7.207 0.688,1.1 1.77,2.103 2.914,3.164 2.172,2.013 4.869,4.514 5.687,8.641 1.097,5.492 -1.732,11.71 -6.447,14.348 4.355,22.527 13.135,44.198 25.745,63.368 5.832,8.864 12.452,17.178 19.374,25.211 3.464,4.022 7.043,7.937 10.572,11.899 2.599,2.917 4.241,6.377 6.744,9.269 2.871,3.315 5.663,6.672 8.311,10.17 5.178,6.838 9.931,13.982 14.823,21.023 0.795,1.143 1.629,2.324 2.842,3.008 1.211,0.684 2.916,0.71 3.85,-0.321 1.296,-1.433 0.398,-3.683 -0.472,-5.408 -7.314,-14.482 -6.778,-29.327 -6.534,-45.04 0.246,-15.814 2.46,-31.439 9.855,-45.418 -3.184,-2.168 -5.289,-5.641 -5.734,-9.794 -0.503,-4.706 1.151,-9.271 4.423,-12.206 1.578,-1.412 3.377,-2.375 4.97,-3.222 1.77,-0.945 3.301,-1.759 4.116,-2.907 0.626,-0.883 0.988,-2.223 1.368,-3.638 0.221,-0.814 0.442,-1.633 0.713,-2.422 1.509,-4.424 4.604,-7.218 8.275,-7.475 3.765,-0.221 7.287,2.284 8.72,6.161 1.039,2.795 0.869,5.622 0.605,8.275 -0.659,6.624 -1.795,13.567 -5.651,19.461 -2.588,3.957 -7.578,8.239 -12.894,9.424 -5.933,20.645 -7.931,42.417 -5.748,63.788 0.141,1.382 0.384,2.92 1.493,3.757 1.151,0.869 2.86,0.604 4.038,-0.229 1.178,-0.832 1.949,-2.109 2.69,-3.347 9.079,-15.203 18.565,-30.161 28.445,-44.855 5.044,-7.504 10.192,-14.938 15.441,-22.301 3.195,-4.483 6.992,-11.253 12.172,-14.618 -1.453,-4.749 -0.018,-10.156 2.248,-14.178 2.733,-4.858 6.19,-9.35 9.535,-13.69 1.412,-1.835 2.816,-3.656 4.148,-5.491 1.296,-1.777 3.464,-4.757 7.099,-5.502 3.428,-0.72 7.229,0.97 9.415,4.185 1.875,2.769 2.259,5.951 2.382,8.109 0.681,11.823 -5.423,23.703 -15.551,30.262 -3.884,2.516 -7.294,3.772 -10.208,3.772 -0.138,0 -0.259,-0.038 -0.395,-0.044 -0.679,0.623 -1.412,1.205 -2.112,1.752 -10.387,8.107 -17.404,19.67 -24.186,30.966 -13.955,23.237 -29.732,46.024 -38.387,72.031 0.72,2.574 1.481,5.136 2.322,7.671 0.208,0.626 0.297,1.257 0.335,1.886 -1.879,0.231 -3.734,0.669 -5.499,1.371 -0.335,0.148 -0.704,0.297 -1.037,0.445 -4.588,2.015 -9.113,5.218 -13.937,4.701 -4.872,-5.013 -9.828,-10.189 -14.845,-15.592 -26.298,-16.486 -50.703,-36.204 -72.267,-58.525 z"
   id="path4"
   style="fill:#faa197;fill-opacity:1;stroke:#000000;stroke-width:8.73514;stroke-linecap:round;stroke-linejoin:round;stroke-dasharray:none;stroke-opacity:1"
   sodipodi:nodetypes="ccccccscccccccccccccccccccccccccccccccccccscccsscsccccccccccccccccsccccccsccccccccccccccscccccccccsccssccccccccccccsccccscccccc" />

</g>
  </g>
</svg>
