<?xml version="1.0" encoding="UTF-8" standalone="no"?>
<!-- Created with Inkscape (http://www.inkscape.org/) -->

<svg
   width="64"
   height="64"
   viewBox="0 0 16.933334 16.933333"
   version="1.1"
   id="svg1"
   inkscape:version="1.4 (e7c3feb1, 2024-10-09)"
   sodipodi:docname="favicon.svg"
   inkscape:export-filename="favicon-16.png"
   inkscape:export-xdpi="24"
   inkscape:export-ydpi="24"
   xmlns:inkscape="http://www.inkscape.org/namespaces/inkscape"
   xmlns:sodipodi="http://sodipodi.sourceforge.net/DTD/sodipodi-0.dtd"
   xmlns="http://www.w3.org/2000/svg"
   xmlns:svg="http://www.w3.org/2000/svg">
  <sodipodi:namedview
     id="namedview1"
     pagecolor="#ffffff"
     bordercolor="#000000"
     borderopacity="0.25"
     inkscape:showpageshadow="2"
     inkscape:pageopacity="0.0"
     inkscape:pagecheckerboard="0"
     inkscape:deskcolor="#d1d1d1"
     inkscape:document-units="mm"
     showgrid="false"
     inkscape:zoom="13.087525"
     inkscape:cx="60.018988"
     inkscape:cy="40.038128"
     inkscape:window-width="5120"
     inkscape:window-height="1387"
     inkscape:window-x="0"
     inkscape:window-y="25"
     inkscape:window-maximized="1"
     inkscape:current-layer="layer1" />
  <defs
     id="defs1" />
  <g
     inkscape:label="Layer 1"
     inkscape:groupmode="layer"
     id="layer1"
     transform="translate(-43.291673,-85.521023)">
    <g
       id="g60"
       transform="matrix(0.83662795,0,0,0.83662795,7.0726497,14.332813)">
      <g
         id="g4-1-3-8-7-5"
         transform="matrix(0.02992905,0.0078535,-0.0078535,0.02992905,38.57881,79.287833)">
	
	<path
   fill="#fdd8e0"
   d="m 490.869,631.804 c -2.85,8.157 -4.233,16.714 -4.307,25.321 -5.138,-1.259 -8.331,-7.581 -7.004,-12.525 1.37,-5.102 -17.63,-4.266 -41.642,-0.648 6.804,-1.819 14.031,-3.138 21.413,-4.484 8.172,-1.49 16.624,-3.03 24.617,-5.338 2.314,-0.667 4.622,-1.467 6.923,-2.326 z M 683.785,379.793 c 0.318,0.034 0.684,0.078 1.069,0.131 -2.742,-2.47 -5.679,-4.662 -8.802,-6.539 -0.626,1.787 -1.326,3.578 -2.172,5.333 3.312,0.358 6.628,0.716 9.905,1.075 z m -8.038,40.389 c -1.728,1.673 -3.487,3.314 -5.234,4.943 -4.571,4.264 -9.295,8.672 -13.078,13.373 -5.087,6.327 -8.776,13.506 -12.039,21.167 5.917,-3.864 12.317,-6.503 19.029,-8.503 13.111,-7.577 26.368,-14.932 39.418,-22.505 1.732,-1.005 2.794,-2.361 3.38,-3.904 -0.76,0.017 -1.53,0.073 -2.287,0.073 -10.275,0.002 -20.152,-1.543 -29.189,-4.644 z m -16.136,-48.99 c -0.091,0.201 -0.191,0.392 -0.308,0.575 -0.878,1.618 -1.816,3.181 -2.832,4.659 1.377,0.139 10.658,1.087 12.032,1.228 1.216,-1.975 2.079,-4.331 2.744,-6.83 -3.114,-1.458 -6.391,-2.608 -9.821,-3.426 -0.566,1.291 -1.165,2.561 -1.815,3.794 z m -26.696,142.991 c -1.347,-4.353 -3.866,-8.11 -6.313,-11.884 -5.206,8.315 -11.036,14.688 -17.569,19.199 1.857,2.054 3.617,4.177 5.285,6.357 5.567,0.35 12.013,-2.179 19.488,-7.659 0.07,-1.789 -0.198,-3.776 -0.891,-6.013 z M 385.503,500.476 c 0.811,2.047 1.859,3.923 3.103,5.646 2.387,1.609 4.759,3.259 7.076,4.904 5.754,4.081 11.675,8.28 15.927,9.842 4.669,-3.346 9.569,-6.221 14.646,-8.563 -13.756,-9.89 -25.947,-22.489 -35.854,-36.566 -6.251,5.97 -8.393,15.914 -4.898,24.737 z m 157.649,115.319 c -3.25,-1.81 -6.134,-3.474 -8.517,-4.888 -6.42,10.45 -13.156,22.91 -17.262,36.474 11.703,-7.545 20.789,-18.676 25.779,-31.586 z m 70.21,5.96 c -1.827,0.13 -3.655,0.216 -5.48,0.216 -15.118,0 -30.066,-4.429 -42.754,-12.771 -2.166,-1.424 -2.769,-4.335 -1.343,-6.501 1.426,-2.167 4.335,-2.768 6.501,-1.343 12.954,8.516 28.597,12.389 44.024,10.921 0.468,-0.046 0.917,0 1.353,0.084 1.569,-13.391 -3.068,-28.57 -8.433,-40.953 -2.154,6.907 -4.65,14.616 -9.608,21.018 -0.699,0.904 -2.563,3.312 -5.68,3.883 -0.47,0.086 -0.926,0.124 -1.364,0.124 -2.228,0 -4.044,-0.967 -5.098,-1.53 l -14.857,-7.907 c -5.785,-3.08 -11.328,-6.132 -16.504,-9.356 -4.867,8.357 -10.878,16.232 -17.684,23.372 2.366,1.429 5.615,3.343 9.499,5.526 0.049,-0.221 0.119,-0.435 0.166,-0.657 0.789,0.694 1.595,1.392 2.414,2.092 12.49,6.897 30.496,15.93 48.531,21.8 0.159,0.042 0.313,0.093 0.465,0.151 2.406,0.776 4.809,1.486 7.2,2.134 3.628,-1.8 6.6,-5.106 8.652,-10.303 z m -91.642,-7.424 c -5.779,4.487 -11.874,8.432 -18.149,11.748 -4.914,9.395 -7.394,19.706 -7.633,30.143 3.54,-0.753 6.96,-1.794 10.248,-3.098 3.077,-14.246 9.127,-27.406 15.534,-38.793 z m 49.429,-272.068 c -3.604,4.758 -7.008,9.251 -9.435,14.25 -5.119,10.547 -5.293,23.447 -0.755,34.271 4.873,-4.148 10.505,-7.804 16.873,-10.607 -0.826,-13.167 -2.815,-26.251 -5.765,-39.137 -0.306,0.408 -0.614,0.822 -0.918,1.223 z m 56.408,32.248 c 6.957,0.441 13.929,1.027 20.89,1.661 0.787,-0.834 1.545,-1.726 2.274,-2.68 -6.792,-1.304 -13.708,-3.076 -20.575,-5.231 -9.938,1.59 -19.684,3.223 -28.784,6.149 8.986,-0.804 17.944,-0.422 26.195,0.101 z M 449.202,527.427 c -1.53,-3.511 -2.633,-7.241 -3.342,-11.111 -3.965,-0.01 -7.593,0.487 -10.571,2.289 -0.048,0.029 -0.101,0.038 -0.15,0.064 -0.191,0.108 -0.382,0.219 -0.593,0.3 -3.679,1.417 -7.27,3.16 -10.755,5.177 1.854,0.399 3.669,0.762 5.399,1.086 6.66,1.247 13.339,1.937 20.012,2.195 z m 242.891,-129.69 c -2.116,5.573 -5.347,10.408 -9.12,14.836 7.411,2.045 15.394,2.96 23.652,2.822 -2.215,-6.929 -5.133,-13.481 -8.712,-19.417 -1.971,0.537 -3.917,1.113 -5.82,1.759 z m -65.132,-13.855 c 18.634,1.181 37.53,3.246 55.804,5.245 0.426,0.046 1.357,0.147 1.728,0.245 0.053,0.347 0.055,1.158 -0.309,2.453 -2.93,10.446 -11.258,18.212 -20.074,26.435 -4.814,4.488 -9.79,9.128 -13.992,14.356 -8.871,11.033 -13.898,24.233 -18.76,36.998 -0.338,0.886 -0.688,1.79 -1.03,2.687 -6.54,5.028 -11.902,11.524 -8.913,20.265 -7.099,13.055 -15.391,21.365 -25.166,25.227 -12.929,5.107 -28.585,2.116 -41.168,-0.286 -2.563,-0.492 -5.004,1.185 -5.492,3.73 -0.486,2.547 1.185,5.006 3.732,5.492 7.993,1.527 17.121,3.271 26.398,3.271 4.25,0 8.53,-0.37 12.746,-1.291 5.223,5.057 9.441,14.595 9.526,22.064 0.064,5.664 -1.749,11.495 -3.505,17.133 -2.063,6.634 -4.197,13.493 -8.289,18.774 -0.018,0.023 -0.037,0.047 -0.053,0.069 -0.101,-0.053 -0.19,-0.1 -0.252,-0.132 l -14.859,-7.91 c -17.908,-9.534 -33.346,-18.641 -40.92,-33.584 -1.171,-2.311 -3.991,-3.24 -6.311,-2.064 -2.313,1.171 -3.237,3.997 -2.065,6.31 4.796,9.459 11.942,16.705 20.566,23.011 -14.136,24.522 -39.752,45.453 -64.961,52.73 -7.539,2.177 -15.753,3.675 -23.698,5.123 -18.773,3.423 -38.124,6.978 -52.381,19.71 -10.716,2.286 -21.133,4.82 -30.139,7.375 -2.775,-5.556 -3.119,-12.467 -3.19,-18.564 -0.047,-4.215 0.056,-8.314 0.231,-12.354 18.016,-39.827 42.16,-71.12 77.212,-98.593 5.23,11.711 15.227,20.905 31.212,24.321 5.861,1.257 11.858,1.355 17.759,0.53 -0.611,0.505 -1.114,1.155 -1.411,1.95 -1.44,3.841 -5.357,7.154 -11.645,9.849 -8.003,3.43 -16.587,5.12 -25.674,6.908 -9.694,1.908 -19.719,3.881 -29.064,8.165 -14.04,6.437 -25.332,17.612 -35.295,27.473 -1.843,1.824 -1.857,4.796 -0.034,6.639 0.919,0.928 2.127,1.393 3.338,1.393 1.194,0 2.389,-0.453 3.303,-1.358 9.868,-9.768 20.072,-19.868 32.599,-25.611 8.337,-3.821 17.385,-5.602 26.967,-7.488 9.165,-1.804 18.643,-3.669 27.561,-7.49 8.734,-3.743 14.366,-8.852 16.738,-15.183 0.91,-2.429 -0.321,-5.135 -2.749,-6.045 -0.019,-0.007 -0.038,-0.008 -0.057,-0.015 9.611,-2.151 18.789,-6.736 26.48,-12.931 29.132,-23.466 44.889,-68.364 30.569,-103.993 -1.042,-2.592 -2.309,-5.145 -3.85,-7.489 -1.9,-2.889 -4.247,-5.422 -7.076,-7.352 6.459,-11.193 17.58,-25.547 34.555,-32.206 13.647,-5.355 28.904,-4.909 43.358,-3.992 z m 17.712,18.82 c -10.87,1.176 -23.356,2.982 -33.988,9.55 -8.725,5.387 -15.276,13.477 -21.057,20.614 -3.143,3.877 -6.703,8.273 -8.786,13.597 -2.15,5.496 -2.448,11.144 -2.735,16.606 -0.238,4.52 -0.463,8.789 -1.715,12.638 -0.8,2.467 0.548,5.114 3.014,5.916 0.481,0.156 0.972,0.232 1.451,0.232 1.981,0 3.819,-1.261 4.465,-3.245 1.632,-5.024 1.9,-10.119 2.159,-15.046 0.261,-4.935 0.507,-9.598 2.102,-13.681 1.552,-3.966 4.493,-7.596 7.338,-11.106 5.57,-6.877 11.331,-13.988 18.696,-18.536 8.963,-5.536 20.221,-7.138 30.068,-8.204 2.577,-0.28 4.44,-2.595 4.161,-5.174 -0.279,-2.579 -2.603,-4.45 -5.173,-4.161 z m -198.971,91.761 c -1.558,-0.895 -2.532,-2.641 -2.338,-4.544 0.228,-2.248 1.991,-3.963 4.166,-4.191 2.3,-8.478 6.022,-16.577 10.853,-23.512 -8.039,-6.233 -16.19,-11.749 -24.014,-15.78 -2.306,-1.187 -3.212,-4.02 -2.024,-6.323 1.188,-2.303 4.023,-3.21 6.324,-2.023 8.4,4.328 17.057,10.181 25.534,16.739 13.108,-14.933 30.827,-25.516 49.222,-33.298 4.338,-1.835 9.01,-3.502 13.708,-4.491 -4.809,-4.844 -7.419,-20.163 -7.865,-23.357 -1.526,-10.927 -0.645,-22.205 2.724,-32.719 0.563,-1.755 1.222,-3.541 2.471,-4.896 1.25,-1.355 3.232,-2.19 4.978,-1.596 2.001,0.681 3.041,3.002 2.983,5.115 -0.058,2.114 -0.953,4.099 -1.71,6.073 -4.777,12.468 -4.269,26.864 1.374,38.964 1.023,2.194 2.222,4.363 2.583,6.757 0.233,1.542 -0.022,3.357 -0.84,4.776 2.181,-0.099 4.333,0.008 6.429,0.376 0.048,-0.085 0.088,-0.172 0.136,-0.257 3.255,-5.761 7.683,-12.364 13.415,-18.59 -7.047,-13.881 -7.341,-31.268 -0.543,-45.272 2.831,-5.832 6.675,-10.909 10.393,-15.819 1.9,-2.508 3.694,-4.88 5.369,-7.349 -1.344,-3.493 -5.618,-6.252 -9.35,-4.83 -29.696,11.309 -48.893,37.859 -56.163,68.219 2.975,5.749 4.649,11.946 5.895,17.526 0.564,2.531 -1.029,5.039 -3.56,5.605 -2.315,0.516 -4.612,-0.797 -5.41,-2.975 -0.134,1.897 -0.237,3.794 -0.293,5.691 -0.081,2.734 -3.851,2.755 -5.788,0.047 -12.466,-17.426 -25.569,-34.392 -39.178,-50.942 -11.445,-7.316 -22.277,-15.562 -32.393,-24.642 -1.091,0.755 -2.007,1.738 -2.601,2.961 -23.091,47.507 -4.429,95.125 20.623,137.175 -2.34,-0.95 -4.682,-1.895 -7.023,-2.845 -9.435,-3.83 -20.427,-10.482 -30.96,-9.841 -1.503,0.091 -2.907,0.368 -4.253,0.737 10.377,14.51 23.372,27.311 38.021,36.853 2.703,-0.725 5.482,-0.997 8.286,-1.043 -0.108,-4.121 0.188,-8.31 0.819,-12.479 z m 170.62,-370.614 c 0.203,-8.216 -0.83,-16.431 -2.591,-24.53 -0.365,0.521 -0.743,1.032 -1.092,1.565 -2.845,4.348 -4.954,9.145 -6.769,14.116 3.738,4.076 7.157,8.639 10.19,13.673 0.124,-1.605 0.222,-3.211 0.262,-4.824 z m 132.418,23.473 c 3.879,-4.699 8.922,-8.879 14.078,-12.437 -6.219,0.451 -12.039,2.515 -17.332,5.676 0.833,1.487 1.632,2.996 2.339,4.562 0.33,0.729 0.618,1.465 0.915,2.199 z m -17.88,6.13 c -4.039,4.956 -7.659,11.236 -11.595,17.322 -5.912,11.275 -10.805,22.892 -15.137,35.981 4.819,0.55 9.6,1.442 14.286,2.73 6.158,1.695 12.428,4.432 17.749,8.137 l 5.299,-25.261 c 2.824,-11.463 4.699,-28.134 -2.191,-43.371 -0.434,-0.961 -0.948,-1.876 -1.439,-2.803 -2.499,2.209 -4.837,4.646 -6.972,7.265 z M 582.305,125.007 c -3.3,-4.118 -7.574,-3.676 -10.776,-1.226 7.687,4.399 14.679,10.659 20.313,18.441 5.461,7.545 9.703,16.52 12.722,26.793 1.06,3.606 3.808,2.892 4.322,0.001 0.824,-4.635 1.793,-9.22 2.743,-13.712 0.747,-3.536 1.474,-7.005 2.132,-10.445 -2.391,-5.661 -6.059,-12.734 -11.337,-19.504 -2.003,6.354 -3.994,12.703 -6.806,18.529 -4.037,-6.502 -8.45,-12.81 -13.313,-18.877 z M 490.31,282.849 c 27.078,-3.44 54.157,-6.879 81.235,-10.318 10.097,-1.283 24.004,-5.395 33.562,-0.212 3.152,-0.174 6.374,-0.325 9.714,-0.439 -15.784,-14.125 -37.241,-21.344 -57.139,-18.667 -2.577,0.342 -4.933,-1.458 -5.279,-4.028 -0.344,-2.57 1.458,-4.933 4.028,-5.279 25.573,-3.434 53.293,7.424 71.344,27.706 5.521,0.014 11.24,0.312 16.789,1.396 -11.633,-8.766 -19.138,-20.858 -17.534,-32.536 -14.27,-10.616 -29.635,-21.153 -46.928,-25.493 -1.797,-0.452 -3.62,-0.803 -5.451,-1.108 -0.199,-0.019 -0.397,-0.045 -0.595,-0.091 -3.728,-0.588 -7.508,-0.91 -11.3,-0.91 -16.184,0 -32.507,5.264 -45.278,15.031 -16.826,12.872 -27.695,33.758 -28.758,54.929 0.465,0.079 0.986,0.095 1.59,0.019 z M 573.866,177.19 c 5.12,8.932 8.537,19.176 7.087,28.366 0.478,0.11 0.959,0.197 1.436,0.316 9.208,2.311 17.782,6.132 25.891,10.73 1.34,0.76 2.743,-1.742 1.774,-5.302 -4.257,-15.642 -12.975,-48.238 -25.817,-63.573 -5.101,-6.091 -10.97,-11.344 -17.258,-15.175 -0.001,0.443 0.021,0.886 0.089,1.324 2.244,14.441 4.528,28.876 6.798,43.314 z m 307.139,61.186 c 0.389,-1.555 0.634,-3.068 0.805,-4.557 -11.273,-16.173 -30.997,-27.146 -52.218,-27.738 -2.361,-0.065 -4.787,-0.011 -7.296,0.152 -1.689,1.083 -4.306,2.424 -8.546,4.572 -10.487,5.318 -28.042,14.217 -37.837,24.6 -6.432,6.816 -12.562,16.031 -18.492,24.942 -7.461,11.217 -13.907,20.906 -20.351,24.971 -0.375,0.236 -0.773,0.407 -1.178,0.527 3.344,1.615 6.675,3.089 10.075,4.306 9.019,-4.252 16.185,-15.181 23.125,-25.779 4.562,-6.969 9.279,-14.173 14.586,-19.486 12.883,-12.9 33.232,-18.805 53.097,-15.408 15.838,2.708 28.899,10.353 38.692,18.239 2.623,-2.378 4.587,-5.529 5.538,-9.341 z m -136.214,61.301 c -0.024,-0.008 -0.046,-0.017 -0.07,-0.024 -7.259,-2.395 -14.027,-5.845 -20.601,-9.205 -6.219,-3.181 -12.094,-6.184 -18.329,-8.349 -0.211,-0.073 -0.436,-0.129 -0.65,-0.199 -6.327,1.912 -12.838,3.214 -19.423,3.78 -4.153,0.355 -8.358,0.164 -12.514,-0.475 -1.283,0.865 -2.489,1.814 -3.55,2.905 4.997,6.79 8.194,15.536 9.055,25.273 0.234,2.647 0.389,5.389 0.472,8.168 8.882,0.657 17.853,-0.03 26.496,-2.147 1.569,-1.424 3.712,-3.051 6.19,-4.918 2.425,-1.826 5.706,-4.304 7.883,-6.318 -1.692,-2.331 -3.505,-4.49 -5.726,-6.274 -5.706,-4.583 3.37,-9.338 5.882,-7.319 5.027,4.04 8.236,9.02 11.338,13.839 2.93,4.55 5.699,8.851 9.779,11.911 1.178,0.885 2.421,1.689 3.659,2.499 2.375,1.55 4.832,3.153 7.067,5.302 5.317,5.115 3.624,18.52 10.022,21.298 6.05,2.627 10.076,-4.383 11.979,-8.897 0.512,-1.216 1.449,-3.104 2.745,-5.714 6.345,-12.774 9.761,-21.094 11.507,-26.541 -0.366,-2.417 -1.002,-4.806 -1.952,-7.151 -0.171,-0.422 -0.374,-0.82 -0.557,-1.233 -11.874,3.803 -24.997,4.138 -37.039,0.895 -1.237,-0.333 -2.455,-0.708 -3.663,-1.106 z m -5.965,30.556 c -5.479,-3.544 -10.169,-8.298 -13.638,-13.824 -1.739,1.059 -3.331,2.167 -4.856,3.305 4.876,9.779 11.967,17.734 21.09,24.922 2.899,2.284 5.918,4.084 8.958,5.404 -2.058,-5.114 -1.935,-11.252 -5.577,-15.379 -1.647,-1.865 -3.888,-3.075 -5.977,-4.428 z m -82.769,-42.626 c -8.995,-6.478 -21.291,-6.788 -33.117,-6.558 -2.934,0.058 -5.763,0.144 -8.546,0.244 3.352,4.464 6.293,9.381 9.799,13.695 6.552,4.17 12.319,9.076 17.14,14.534 8.689,5.351 18.372,8.983 28.391,10.847 -0.084,-2.183 -0.201,-4.277 -0.367,-6.159 -1.02,-11.554 -5.868,-21.25 -13.3,-26.603 z m 102.25,5.546 c 7.443,0.941 15.105,0.402 22.314,-1.598 -2.903,-3.927 -6.367,-7.406 -10.181,-10.537 -0.297,-0.243 -0.552,-0.489 -0.795,-0.735 -3.47,4.802 -7.16,9.283 -11.338,12.87 z M 630.363,231.281 c 2.958,-4.853 7.884,-9.437 15.175,-13.45 -1.013,-2.276 -2.014,-4.563 -2.935,-6.871 -0.96,-2.408 0.211,-5.139 2.62,-6.101 2.416,-0.963 5.139,0.215 6.1,2.621 0.843,2.112 1.759,4.234 2.699,6.351 7.441,-3.06 15.257,-5.23 23.218,-6.476 -2.344,-23.788 -7.292,-46.789 -11.482,-66.159 -0.548,-2.534 1.064,-5.033 3.597,-5.581 2.538,-0.548 5.034,1.062 5.582,3.596 4.244,19.625 9.247,42.893 11.646,67.114 2.743,-0.174 5.49,-0.232 8.236,-0.181 4.961,-15.926 9.453,-27.177 15.49,-38.697 -1.861,-11.726 -5.124,-23.222 -9.863,-34.254 -6.147,-14.314 -15.485,-31.639 -28.346,-42.752 -5.899,-3.481 -11.908,-6.782 -18.006,-9.907 -12.26,-3.02 -23.827,1.675 -32.8,10.033 2.867,10.859 4.697,22.086 4.413,33.513 -0.177,7.178 -1.183,14.257 -2.471,21.206 -0.002,0.009 -0.003,0.019 -0.006,0.03 -0.746,4.021 -1.585,8 -2.415,11.929 -1.499,7.1 -3.051,14.442 -3.94,21.645 -2.117,17.121 1.559,34.858 10.33,50.067 1.066,0.77 2.105,1.549 3.158,2.324 z m 159.957,20.24 c -3.32,3.325 -6.448,7.617 -9.615,12.314 12.368,-6.886 25.49,-11.315 40.428,-12.987 13.758,-1.539 26.27,1.307 39.829,1.871 1.758,0.073 3.473,-0.057 5.118,-0.375 -8.299,-6.064 -18.709,-11.529 -30.888,-13.609 -16.901,-2.888 -34.102,2.006 -44.872,12.786 z m 5.325,-49.994 c 9.919,-2.673 18.493,-4.205 26.394,-4.692 0.985,-2.665 2.3,-5.192 3.873,-7.551 -8.812,-0.785 -17.672,-0.877 -25.207,-0.579 2.406,-5.811 3.365,-12.1 2.978,-18.271 -4.964,5.453 -9.163,11.593 -12.327,18.25 -0.805,1.692 -2.489,2.682 -4.243,2.682 -0.676,0 -1.362,-0.147 -2.013,-0.456 -2.343,-1.113 -3.338,-3.913 -2.226,-6.256 4.512,-9.494 10.883,-18.065 18.54,-25.28 -3.667,-10.085 -11.58,-18.665 -23.797,-22.569 -0.109,0.059 -0.223,0.111 -0.332,0.171 -13.149,7.263 -21.981,15.112 -25.086,22.239 2.444,13.12 0.728,25.849 -1.587,35.234 l -6.084,29.013 c 14.94,-9.376 32.127,-16.818 51.117,-21.935 z m -63.586,75.851 c 4.747,-2.996 11.253,-12.774 17.545,-22.232 6.146,-9.236 12.5,-18.788 19.478,-26.184 3.162,-3.351 6.956,-6.514 11.019,-9.454 3.236,-2.342 1.795,-3.822 -2.181,-2.253 -10.611,4.185 -20.49,9.261 -29.506,15.065 0.212,0.563 0.425,1.127 0.595,1.708 0.439,1.506 0.734,3.072 0.866,4.698 1.086,13.378 -9.433,24.943 -20.733,32.186 -3.556,2.279 -7.276,4.293 -11.103,6.079 3.532,1.627 6.98,3.372 10.357,5.098 0.593,0.303 1.746,-3.502 3.663,-4.711 z m 100.229,-80.517 c 17.522,1.071 34.025,8.334 46.466,19.514 -5.123,-10.233 -15.52,-17.673 -26.104,-21.67 -4.745,-1.791 -10.182,-3.11 -15.892,-4.061 -1.754,1.871 -3.279,3.952 -4.47,6.217 z"
   id="path2-2-9-3-0-0"
   style="fill:#61b3b5;fill-opacity:1" />

	<path
   fill="#f990b1"
   d="m 630.363,231.281 c 1.202,0.884 2.417,1.764 3.602,2.65 10.034,7.498 20.171,15.597 27.547,25.707 -1.85,-11.287 -6.734,-21.837 -11.925,-32.949 -1.355,-2.901 -2.719,-5.866 -4.05,-8.859 -7.289,4.014 -12.215,8.598 -15.174,13.451 z m 14.2,41.727 c 6.02,1.175 11.84,3.275 16.982,6.979 0.05,0.037 0.101,0.073 0.151,0.11 l -1.77,-4.326 c -5.763,-14.199 -18.763,-24.74 -31.581,-34.321 -0.437,-0.327 -0.877,-0.653 -1.316,-0.979 -1.604,11.679 5.901,23.772 17.534,32.537 z m 42.02,-66.683 c 0.414,4.185 0.774,8.388 1.014,12.617 0.209,3.672 2.613,2.745 3.772,-1.272 1.19,-4.126 2.331,-7.934 3.449,-11.526 -2.746,-0.051 -5.493,0.007 -8.235,0.181 z m 17.546,0.43 c -5.853,17.689 -10.686,38.071 -15.63,63.983 3.134,-0.241 6.282,-0.181 9.366,0.131 8.597,-15.104 20.634,-28.457 35.447,-39.657 l 2.85,-13.589 c -5.32,-3.705 -11.591,-6.443 -17.749,-8.137 -4.685,-1.288 -9.465,-2.18 -14.284,-2.731 z m 45.746,31.97 c -0.132,-1.626 -0.427,-3.192 -0.866,-4.698 -0.17,-0.581 -0.383,-1.145 -0.595,-1.708 -17.224,11.088 -31.239,24.881 -40.779,40.532 0.41,0.13 0.834,0.24 1.237,0.379 3.138,1.09 6.181,2.385 9.167,3.76 3.827,-1.786 7.547,-3.8 11.103,-6.079 11.3,-7.243 21.819,-18.808 20.733,-32.186 z m -64.157,46.957 c 6.585,-0.566 13.096,-1.869 19.423,-3.78 -6.471,-2.106 -14.282,-2.557 -21.361,-1.04 -0.126,0.03 -0.25,0.064 -0.378,0.085 -1.123,0.253 -2.226,0.549 -3.301,0.903 -0.344,0.17 -0.697,0.293 -1.075,0.376 -2.099,0.774 -4.044,1.783 -5.821,2.981 4.155,0.639 8.361,0.83 12.513,0.475 z m -27.623,-62.967 c 5.655,12.105 11.503,24.619 13.151,38.394 0.634,5.288 0.234,9.974 -0.419,14.586 1.06,-0.57 2.149,-1.09 3.269,-1.561 5.255,-21.395 5.347,-44.434 3.145,-66.779 -7.961,1.246 -15.776,3.416 -23.218,6.476 1.326,2.988 2.708,5.966 4.072,8.884 z"
   id="path3-1-9-1-9-3"
   style="fill:#eb8d78;fill-opacity:1"
   sodipodi:nodetypes="cccsccccccscccsscccccccccsscccccsccccccccccccccc" />

	<path
   fill="#200526"
   d="m 614.309,612.277 c 0.468,-0.046 0.917,0 1.353,0.084 1.998,0.386 3.565,2.024 3.768,4.143 0.245,2.581 -1.646,4.873 -4.227,5.12 -0.613,0.058 -1.228,0.087 -1.841,0.131 -1.827,0.13 -3.655,0.216 -5.48,0.216 -15.118,0 -30.066,-4.429 -42.754,-12.771 -2.166,-1.424 -2.769,-4.335 -1.343,-6.501 1.426,-2.167 4.335,-2.768 6.501,-1.343 12.953,8.517 28.596,12.389 44.023,10.921 z m -60.738,9.108 c -0.458,15.517 -9.01,31.111 -17.357,46.275 -9.22,16.75 -17.926,32.569 -16.069,47.325 0.25,1.991 -0.791,3.921 -2.593,4.802 -0.658,0.323 -1.364,0.479 -2.063,0.479 -1.22,0 -2.421,-0.474 -3.322,-1.375 -16.964,-16.961 -25.794,-39.536 -25.604,-61.765 0.074,-8.607 1.457,-17.164 4.307,-25.321 -2.301,0.858 -4.609,1.659 -6.924,2.327 -7.993,2.307 -16.445,3.848 -24.617,5.338 -7.381,1.346 -14.608,2.665 -21.413,4.484 -11.406,3.049 -21.62,7.505 -29.362,15.861 -0.958,1.035 -1.889,2.133 -2.824,3.236 -3.844,4.527 -8.2,9.658 -14.905,11.356 -1.444,0.367 -2.881,0.536 -4.296,0.536 -8.19,0 -15.608,-5.718 -19.255,-12.314 -4.2,-7.585 -4.642,-16.246 -4.729,-23.769 -0.323,-28.938 4.417,-54.164 14.091,-74.975 2.243,-4.825 4.785,-9.438 7.583,-13.811 -3.332,-1.347 -6.334,-3.12 -7.597,-4.051 -9.19,-6.77 -19.398,-11.851 -30.339,-15.104 -3.322,-0.988 -6.801,-1.788 -9.651,-0.966 -4.124,1.187 -7.177,5.812 -10.132,10.283 l -0.811,1.225 c -5.577,8.372 -11.732,12.605 -18.311,12.605 -0.433,0 -0.867,-0.018 -1.302,-0.055 -2.141,-0.179 -3.885,-1.788 -4.238,-3.906 -4.612,-27.688 0.133,-53.322 13.36,-72.181 12.827,-18.286 38.691,-28.579 61.432,-25.653 -5.531,-11.736 -9.457,-23.973 -11.4,-36.18 -6.398,-40.221 5.346,-82.91 31.414,-114.195 5.806,-6.972 11.691,-9.714 17.49,-8.139 1.609,0.437 2.868,1.694 3.303,3.304 1.284,4.742 -0.479,9.043 -1.896,12.499 -0.724,1.77 -1.41,3.443 -1.637,4.931 -0.832,5.437 4.078,10.994 8.445,15.23 15.251,14.774 32.402,27.478 50.974,37.754 l 2.925,1.605 c 3.271,1.785 6.582,3.597 9.774,5.606 3.168,-23.998 26.147,-42.6 33.858,-48.211 7.743,-5.636 16.266,-10.025 25.021,-13.653 -4.5,-3.757 -10.254,-8.11 -14.884,-11.606 -2.03,-1.532 -3.9,-2.946 -5.496,-4.177 -11.24,2.477 -22.676,3.732 -34.223,1.43 -2.907,-0.58 -6.54,-1.653 -8.876,-4.829 -2.301,-3.136 -2.23,-7.001 -2.196,-8.859 0.197,-10.439 2.451,-20.693 6.421,-30.217 -19.438,-18.812 -45.56,-34.787 -81.905,-50.083 -3.604,-1.516 -5.547,-4.731 -4.956,-8.193 0.674,-3.957 4.536,-6.922 9.387,-7.213 36.664,-2.208 78.892,7.102 113.544,24.896 15.144,-8.412 32.756,-11.946 49.979,-10.005 1.555,-9.921 -4.946,-23.412 -13.464,-32.719 -37.29,-40.745 -61.501,-46.455 -71.012,-47.226 -3.17,-0.257 -2.661,-3.049 -1.515,-4.216 3.157,-3.214 7.127,-5.309 10.251,-6.957 19.2,-10.127 45.507,-24.003 72.098,-19.272 14.416,2.563 27.385,10.045 37.816,21.421 3.738,4.076 7.157,8.639 10.19,13.673 0.124,-1.603 0.221,-3.209 0.261,-4.823 0.203,-8.216 -0.83,-16.431 -2.591,-24.53 -3.25,-14.951 -9.017,-29.501 -14.342,-42.89 -0.669,-1.685 -0.31,-3.606 0.926,-4.933 1.238,-1.33 3.131,-1.824 4.855,-1.277 41.505,13.165 79.704,33.731 113.541,61.134 9.61,7.782 20.07,17.246 26.775,29.208 0.833,1.487 1.632,2.996 2.339,4.562 0.33,0.73 0.618,1.466 0.915,2.199 3.879,-4.699 8.922,-8.879 14.078,-12.437 3.359,-2.318 6.763,-4.379 9.929,-6.127 10.38,-5.734 21.52,-8.811 33.958,-11.962 4.926,-1.249 15.184,-3.849 22.277,2.315 3.661,3.182 5.068,7.48 6.311,11.274 0.752,2.299 1.463,4.47 2.563,6.082 1.295,1.893 3.441,3.459 5.715,5.115 l 0.993,0.726 c 11.299,8.333 18.242,17.58 20.64,27.483 0.484,1.995 0.922,4.961 -0.818,7.691 -2.32,3.643 -6.437,3.907 -8.894,4.065 -7.151,0.462 -13.878,3.922 -18.733,9.099 -1.754,1.871 -3.279,3.952 -4.47,6.217 17.522,1.071 34.025,8.334 46.466,19.514 9.417,8.463 16.512,19.165 19.922,31.158 0.942,3.315 1.859,7.675 0.568,12.005 -1.641,5.498 -6.794,9.243 -11.927,8.706 -4.213,-0.436 -7.065,-3.328 -9.149,-5.441 -3.291,-3.338 -7.349,-6.996 -12.089,-10.459 -8.299,-6.064 -18.709,-11.529 -30.888,-13.609 -16.901,-2.888 -34.103,2.006 -44.872,12.787 -3.32,3.325 -6.448,7.617 -9.615,12.314 -1.242,1.843 -2.49,3.743 -3.759,5.68 -2.375,3.628 -4.782,7.28 -7.302,10.768 -3.469,4.802 -7.16,9.283 -11.338,12.87 7.443,0.941 15.105,0.402 22.314,-1.598 0.849,-0.236 1.696,-0.48 2.531,-0.757 l 0.261,-0.088 c 2.357,-0.785 5.591,-1.859 9.039,-0.736 2.531,0.823 4.427,2.586 5.481,5.098 3.351,7.978 -2.499,22.72 -13.027,43.917 -1.13,2.274 -2.104,4.236 -2.501,5.176 -5.09,12.108 -23.058,23.922 -31.486,7.155 -0.207,-0.413 -0.366,-0.85 -0.539,-1.279 -2.058,-5.114 -1.935,-11.252 -5.577,-15.379 -1.647,-1.866 -3.888,-3.077 -5.978,-4.429 -5.479,-3.544 -10.169,-8.298 -13.638,-13.824 -1.739,1.059 -3.331,2.167 -4.856,3.305 -6.452,4.812 -11.203,10.395 -15.712,17.494 -4.545,7.134 -14.738,14.129 -24.864,17.744 -0.318,4.431 -1.24,11.4 -3.704,18.432 -0.626,1.787 -1.326,3.578 -2.172,5.333 3.312,0.358 6.628,0.715 9.905,1.074 0.318,0.034 0.684,0.078 1.069,0.131 1.764,0.241 4.108,0.768 6.047,2.519 0.977,0.881 2.213,2.476 2.737,4.95 13.575,-3.931 28.202,-5.417 42.422,-6.839 6.102,-0.61 11.867,-1.187 17.539,-1.947 16.092,-2.158 36.617,-6.044 52.634,-17.029 4.488,-3.075 7.273,-0.315 7.787,0.267 0.738,0.839 2.856,3.908 -0.949,8.184 -15.019,16.868 -33.589,31.145 -53.704,41.288 -16.965,8.555 -35.036,13.066 -52.142,13.438 -0.76,0.017 -1.53,0.073 -2.287,0.073 -10.275,0 -20.152,-1.545 -29.189,-4.645 -1.728,1.673 -3.487,3.314 -5.234,4.943 -4.571,4.264 -9.295,8.672 -13.078,13.373 -5.087,6.327 -8.776,13.506 -12.039,21.167 5.917,-3.864 12.317,-6.503 19.029,-8.503 7.871,-2.346 16.175,-3.809 24.656,-5.293 2.471,-0.432 4.972,-0.87 7.498,-1.335 10.276,-1.893 21.621,-2.086 32.594,-2.272 16.39,-0.276 33.337,-0.562 46.977,-6.46 3.322,-1.437 7.643,-1.537 9.8,1.469 1.247,1.736 1.552,4.543 -0.575,6.902 -6.609,7.334 -15.879,11.386 -24.846,15.304 -1.96,0.857 -3.911,1.71 -5.811,2.59 -28.351,13.129 -50.802,38.853 -64.646,58.122 -17.016,23.683 -37.178,38.391 -58.582,42.859 2.208,8.607 3.231,17.486 2.907,26.396 -0.034,0.942 -0.083,1.887 -0.131,2.833 -0.195,3.858 -0.381,7.504 0.403,10.805 1.192,5.027 4.647,9.413 8.303,14.058 2.671,3.39 5.433,6.898 7.537,10.924 0.942,1.803 2.111,4.553 1.414,7.614 -0.857,3.738 -3.945,6.342 -9.178,7.746 -4.289,1.151 -16.42946,3.2135 -44.26654,-4.00587 C 570.64037,632.19877 559.139,624.256 553.571,621.385 Z M 744.529,223.462 c 14.939,-9.377 32.126,-16.819 51.116,-21.935 9.919,-2.673 18.493,-4.205 26.394,-4.692 0.985,-2.665 2.3,-5.192 3.873,-7.551 6.422,-9.633 17.284,-16.353 28.904,-17.104 0.378,-0.024 0.857,-0.055 1.281,-0.101 -0.007,-0.025 -0.014,-0.053 -0.021,-0.083 -1.864,-7.698 -7.613,-15.145 -17.089,-22.132 l -0.949,-0.696 c -0.198,-0.144 -0.408,-0.304 -0.61,-0.452 -12.909,4.047 -24.636,11.707 -33.746,21.717 -4.964,5.453 -9.163,11.593 -12.327,18.25 -0.805,1.692 -2.489,2.682 -4.243,2.682 -0.676,0 -1.362,-0.147 -2.013,-0.456 -2.343,-1.113 -3.338,-3.913 -2.226,-6.256 4.512,-9.494 10.883,-18.065 18.54,-25.28 8.224,-7.751 17.934,-13.939 28.478,-17.967 -1.708,-2.627 -2.681,-5.527 -3.523,-8.103 -0.988,-3.019 -1.841,-5.626 -3.544,-7.106 -2.985,-2.595 -8.658,-1.607 -13.813,-0.303 -11.66,2.955 -22.076,5.829 -31.394,10.91 -0.109,0.059 -0.223,0.111 -0.332,0.171 -13.149,7.263 -21.981,15.112 -25.086,22.239 2.444,13.12 0.728,25.849 -1.587,35.234 z m -26.49,53.528 c 3.532,1.627 6.98,3.372 10.357,5.098 0.594,0.304 1.747,-3.502 3.663,-4.711 4.747,-2.996 11.253,-12.774 17.545,-22.232 6.146,-9.236 12.5,-18.788 19.478,-26.184 3.162,-3.351 6.956,-6.514 11.019,-9.454 3.236,-2.342 1.795,-3.822 -2.181,-2.253 -10.611,4.185 -20.49,9.261 -29.506,15.065 -17.224,11.088 -31.239,24.881 -40.779,40.532 0.41,0.13 0.834,0.24 1.237,0.379 3.138,1.09 6.181,2.385 9.167,3.76 z m -90.834,-48.033 c 1.066,0.77 2.105,1.549 3.159,2.324 1.202,0.884 2.417,1.764 3.602,2.65 10.034,7.498 20.171,15.597 27.547,25.707 -1.85,-11.287 -6.734,-21.837 -11.925,-32.949 -1.355,-2.901 -2.719,-5.866 -4.05,-8.859 -1.013,-2.276 -2.014,-4.563 -2.935,-6.871 -0.96,-2.408 0.211,-5.139 2.62,-6.101 2.416,-0.963 5.139,0.215 6.1,2.621 0.843,2.112 1.759,4.234 2.699,6.351 1.327,2.988 2.709,5.966 4.072,8.884 5.655,12.105 11.503,24.619 13.151,38.394 0.634,5.288 0.234,9.974 -0.419,14.586 1.06,-0.57 2.149,-1.09 3.269,-1.561 5.255,-21.395 5.347,-44.434 3.145,-66.779 -2.344,-23.788 -7.292,-46.789 -11.482,-66.159 -0.548,-2.534 1.064,-5.033 3.597,-5.581 2.538,-0.548 5.034,1.062 5.582,3.596 4.244,19.625 9.247,42.893 11.646,67.114 0.414,4.185 0.774,8.388 1.014,12.617 0.209,3.672 2.613,2.745 3.772,-1.272 1.19,-4.126 2.331,-7.934 3.449,-11.526 4.961,-15.926 9.453,-27.177 15.49,-38.697 2.587,-4.937 5.453,-9.926 8.77,-15.362 1.35,-2.213 4.241,-2.914 6.453,-1.563 2.212,1.351 2.911,4.238 1.561,6.453 -2.803,4.596 -5.399,9.17 -7.827,13.799 -5.912,11.275 -10.805,22.892 -15.137,35.981 -5.853,17.689 -10.686,38.071 -15.63,63.983 3.134,-0.241 6.282,-0.181 9.366,0.131 8.597,-15.104 20.634,-28.457 35.447,-39.657 l 2.85,-13.589 5.299,-25.261 c 2.824,-11.463 4.699,-28.134 -2.191,-43.371 -0.434,-0.961 -0.948,-1.876 -1.439,-2.803 C 732.014,135.196 722.437,126.454 712.8,118.649 700.039,108.315 686.384,98.873 672.099,90.441 666.2,86.96 660.191,83.659 654.093,80.534 640.388,73.512 626.232,67.399 611.81,62.336 c 3.501,9.025 6.909,18.48 9.483,28.231 2.867,10.859 4.697,22.086 4.413,33.513 -0.177,7.178 -1.183,14.257 -2.471,21.206 -0.002,0.009 -0.003,0.019 -0.006,0.03 -0.746,4.021 -1.585,8 -2.415,11.929 -1.499,7.1 -3.051,14.442 -3.94,21.645 -2.117,17.122 1.559,34.859 10.331,50.067 z m 42.519,91.412 c -0.084,-2.183 -0.201,-4.277 -0.367,-6.159 -1.02,-11.553 -5.868,-21.25 -13.3,-26.602 -8.995,-6.478 -21.291,-6.788 -33.117,-6.558 -2.934,0.058 -5.763,0.144 -8.546,0.244 -5.301,0.19 -10.367,0.448 -15.186,0.796 7.583,3.057 15.464,7.051 23.613,12.024 0.465,0.284 0.914,0.584 1.372,0.875 6.552,4.17 12.319,9.076 17.14,14.534 6.242,7.069 10.91,15.05 13.634,23.538 0.326,1.018 0.626,2.047 0.926,3.077 0.855,2.931 1.662,5.702 3.051,7.921 0.956,1.002 5.288,4.186 9.297,3.968 1.463,-8.791 1.809,-19.134 1.483,-27.658 z m -68.362,54.041 c 8.985,-0.804 17.944,-0.422 26.194,0.101 6.957,0.441 13.929,1.027 20.89,1.661 0.787,-0.834 1.545,-1.726 2.274,-2.68 -6.792,-1.304 -13.708,-3.076 -20.575,-5.231 -21.144,-6.636 -41.819,-16.947 -56.935,-28.746 -0.382,0.512 -0.762,1.016 -1.143,1.524 -0.306,0.408 -0.614,0.822 -0.917,1.223 -3.604,4.758 -7.008,9.251 -9.435,14.25 -5.119,10.547 -5.293,23.447 -0.755,34.271 4.873,-4.148 10.505,-7.804 16.873,-10.607 0.783,-0.345 1.533,-0.728 2.34,-1.045 6.849,-2.686 14.027,-4.079 21.189,-4.721 z M 573.866,177.19 c 5.12,8.932 8.537,19.176 7.087,28.366 0.478,0.11 0.959,0.197 1.436,0.316 9.208,2.311 17.782,6.132 25.891,10.73 1.34,0.76 2.743,-1.742 1.774,-5.302 -4.257,-15.642 -12.975,-48.238 -25.817,-63.573 -5.101,-6.091 -10.97,-11.344 -17.258,-15.175 -6.71,-4.088 -13.898,-6.555 -21.159,-6.632 -2.593,-0.028 -4.672,-2.15 -4.644,-4.743 0.028,-2.577 2.125,-4.647 4.695,-4.647 h 0.05 c 8.805,0.093 17.586,2.657 25.609,7.249 7.687,4.399 14.679,10.659 20.313,18.441 5.461,7.545 9.703,16.52 12.722,26.793 1.06,3.606 3.808,2.892 4.322,0.001 0.824,-4.635 1.793,-9.22 2.743,-13.712 0.747,-3.536 1.474,-7.005 2.132,-10.445 -2.391,-5.661 -6.059,-12.734 -11.337,-19.504 -7.904,-10.138 -19.454,-19.588 -36.015,-22.532 -18.994,-3.378 -38.261,4.177 -57.897,14.099 4.924,0.324 8.931,3.144 12.31,5.777 16.177,12.601 31.159,26.876 44.531,42.429 3.006,3.499 5.966,7.622 8.512,12.064 z m -83.909,68.511 c 5.465,-9.731 12.845,-18.395 21.817,-25.257 0.253,-0.195 0.519,-0.368 0.775,-0.558 -30.86,-14.807 -67.199,-22.751 -99.51,-21.638 33.256,14.487 57.951,29.731 76.918,47.453 z m 50.588,37.436 c 4.369,-1.242 8.89,-2.525 13.35,-3.64 15.149,-3.791 31.427,-6.084 51.212,-7.178 3.152,-0.174 6.374,-0.325 9.714,-0.439 -15.784,-14.125 -37.241,-21.344 -57.139,-18.667 -2.577,0.342 -4.933,-1.458 -5.279,-4.028 -0.344,-2.57 1.458,-4.933 4.028,-5.279 25.573,-3.434 53.293,7.424 71.344,27.706 5.521,0.014 11.24,0.312 16.789,1.396 6.02,1.175 11.84,3.275 16.982,6.979 0.05,0.037 0.101,0.073 0.151,0.11 l -1.77,-4.326 c -5.763,-14.199 -18.763,-24.74 -31.581,-34.321 -0.437,-0.327 -0.877,-0.653 -1.316,-0.979 -14.27,-10.616 -29.635,-21.153 -46.928,-25.493 -1.797,-0.452 -3.62,-0.803 -5.451,-1.108 -0.199,-0.019 -0.397,-0.045 -0.595,-0.091 -3.728,-0.588 -7.508,-0.91 -11.3,-0.91 -16.184,0 -32.507,5.264 -45.278,15.031 -16.826,12.872 -27.695,33.758 -28.758,54.929 -0.036,0.71 -0.091,1.419 -0.104,2.129 -0.014,0.63 -0.048,2.547 0.374,3.122 0.177,0.241 0.823,0.717 3.145,1.181 15.765,3.149 31.625,-1.358 48.41,-6.124 z m 14.292,25.9 c 8.268,-2.915 16.56,-5.327 24.425,-7.607 1.272,-0.37 2.65,-0.182 3.78,0.518 1.13,0.701 1.909,1.848 2.146,3.154 1.477,8.16 -0.786,17.119 -6.639,26.654 19.686,15.56 49.773,28.466 77.236,33.103 1.372,-3.085 2.46,-6.35 3.135,-9.654 -3.899,-1.88 -6.845,-4.477 -7.76,-5.889 -2.196,-3.398 -3.257,-7.035 -4.282,-10.553 -0.277,-0.95 -0.552,-1.899 -0.853,-2.837 -4.287,-13.353 -14.265,-25.358 -28.097,-33.8 -15.846,-9.67 -30.46,-15.466 -43.457,-17.247 -6.385,1.022 -12.435,2.258 -18.298,3.725 -4.319,1.081 -8.764,2.343 -13.064,3.565 -2.297,0.652 -4.605,1.305 -6.923,1.943 6.345,4.789 13.84,10.474 18.651,14.925 z M 389.785,542.133 c 4.163,-5.425 8.752,-10.372 13.682,-14.764 -4.169,-2.282 -8.615,-5.42 -13.217,-8.688 -3.626,-2.572 -7.374,-5.233 -11.003,-7.474 -7.606,-4.696 -19.12,-9.871 -30.71,-7.855 -2.581,0.442 -4.986,-1.269 -5.431,-3.821 -0.442,-2.555 1.268,-4.986 3.821,-5.429 14.526,-2.523 28.269,3.566 37.252,9.117 1.482,0.915 2.955,1.91 4.426,2.903 2.387,1.609 4.759,3.259 7.076,4.904 5.754,4.081 11.675,8.28 15.927,9.842 4.669,-3.346 9.569,-6.221 14.646,-8.563 -13.756,-9.89 -25.947,-22.489 -35.854,-36.566 -2.906,-4.128 -5.64,-8.367 -8.128,-12.721 -20.497,-5.923 -47.335,3.111 -59.388,20.298 -11.07,15.78 -15.439,37.136 -12.477,60.545 2.902,-1.48 5.545,-4.722 7.468,-7.608 l 0.789,-1.192 c 3.711,-5.618 7.915,-11.985 15.368,-14.131 5.19,-1.496 10.455,-0.34 14.928,0.989 11.982,3.562 23.164,9.128 33.232,16.545 1.868,1.376 5.314,3.006 7.593,3.669 z m 154.194,74.124 c -0.284,-0.158 -0.548,-0.307 -0.826,-0.462 -3.25,-1.81 -6.134,-3.474 -8.517,-4.888 -6.42,10.45 -13.156,22.91 -17.262,36.474 -1.754,5.794 -3.036,11.786 -3.595,17.914 -0.222,2.437 -2.272,4.268 -4.672,4.268 -0.142,0 -0.287,-0.007 -0.431,-0.021 -2.583,-0.235 -4.484,-2.519 -4.25,-5.1 0.351,-3.84 0.96,-7.613 1.76,-11.317 3.078,-14.246 9.127,-27.406 15.535,-38.793 -5.779,4.487 -11.874,8.432 -18.149,11.748 -4.914,9.395 -7.394,19.706 -7.633,30.143 -0.376,16.419 4.839,33.152 15.195,47.133 2.166,-13.537 9.605,-27.052 16.855,-40.223 9.138,-16.605 17.767,-32.329 15.99,-46.876 z m 81.551,-11.006 c -1.093,-4.605 -0.864,-9.1 -0.644,-13.449 0.046,-0.901 0.092,-1.799 0.124,-2.698 0.535,-14.66 -2.91,-29.259 -9.757,-42.399 -2.282,-4.38 -3.934,-1.355 -3.873,3.961 0.08,7.146 -2.049,13.99 -3.927,20.029 -0.073,0.234 -0.15,0.477 -0.224,0.713 -2.154,6.907 -4.65,14.616 -9.608,21.018 -0.699,0.904 -2.563,3.312 -5.68,3.883 -0.47,0.086 -0.926,0.124 -1.364,0.124 -2.228,0 -4.044,-0.967 -5.098,-1.53 l -14.857,-7.907 c -5.785,-3.08 -11.328,-6.132 -16.504,-9.356 -4.867,8.357 -10.878,16.232 -17.684,23.372 2.366,1.429 5.615,3.343 9.499,5.526 0.828,0.466 1.693,0.946 2.579,1.435 12.49,6.897 30.496,15.93 48.531,21.8 0.159,0.042 0.313,0.093 0.465,0.151 2.406,0.776 4.809,1.486 7.2,2.134 13.003,3.526 25.581,4.985 35.6,2.298 1.364,-0.366 2.045,-0.706 2.361,-0.908 -0.076,-0.181 -0.216,-0.52 -0.484,-1.035 -1.701,-3.252 -4.076,-6.269 -6.593,-9.464 -4.125,-5.239 -8.391,-10.656 -10.062,-17.698 z M 637.214,480.49 c -0.568,1.438 -1.135,2.881 -1.726,4.304 -2.736,6.587 -5.694,12.408 -8.886,17.506 -5.206,8.315 -11.036,14.688 -17.569,19.199 1.857,2.054 3.617,4.177 5.285,6.357 5.567,0.35 12.013,-2.179 19.488,-7.659 3.276,-2.401 6.747,-5.364 10.432,-8.91 l 41.457,-39.885 c 1.868,-1.796 4.841,-1.741 6.639,0.128 1.797,1.868 1.74,4.84 -0.128,6.639 l -41.457,39.884 c -7.714,7.423 -18.545,16.585 -30.303,18.756 3.324,5.488 6.076,11.256 8.248,17.21 24.325,-4.696 42.567,-23.737 53.754,-39.305 14.499,-20.183 36.731,-46.512 66.93,-60.499 1.962,-0.908 0.64,-3.304 -0.618,-3.218 -6.449,0.439 -12.979,0.549 -19.427,0.658 -11.076,0.186 -21.541,0.363 -31.052,2.116 -2.554,0.471 -5.082,0.913 -7.581,1.35 -21.73,3.8 -40.509,7.103 -53.486,25.369 z m 60.699,-84.512 c -1.971,0.537 -3.917,1.113 -5.82,1.759 -2.116,5.573 -5.347,10.408 -9.12,14.836 7.411,2.045 15.394,2.96 23.652,2.822 15.808,-0.264 32.64,-4.458 48.513,-12.463 12.055,-6.079 23.526,-13.724 33.931,-22.566 -11.842,4.092 -23.904,6.163 -34.224,7.546 -5.827,0.782 -11.941,1.394 -17.85,1.985 -13.196,1.319 -26.737,2.716 -39.082,6.081 z m -70.952,-12.096 c -14.453,-0.917 -29.711,-1.363 -43.359,3.991 -16.975,6.659 -28.096,21.013 -34.555,32.206 -0.156,0.271 -0.323,0.548 -0.474,0.815 -8.353,14.785 -13.302,31.571 -18.091,47.804 -0.734,2.488 -3.344,3.912 -5.829,3.175 -2.487,-0.732 -3.908,-3.342 -3.175,-5.829 4.909,-16.651 9.992,-33.86 18.784,-49.511 0.048,-0.085 0.088,-0.172 0.136,-0.257 3.255,-5.761 7.683,-12.364 13.415,-18.59 -7.047,-13.881 -7.341,-31.268 -0.543,-45.272 2.831,-5.832 6.675,-10.909 10.393,-15.819 1.9,-2.508 3.694,-4.88 5.369,-7.349 0.033,-0.048 0.069,-0.094 0.101,-0.142 4.17,-6.174 6.517,-11.864 7.01,-16.986 -17.795,5.22 -35.788,11.072 -50.738,21.951 -15.351,11.169 -31.047,29.349 -30.288,47.498 1.694,1.582 3.292,3.291 4.734,5.196 1.415,1.869 2.62,3.844 3.669,5.872 2.975,5.749 4.649,11.946 5.895,17.526 0.564,2.531 -1.029,5.039 -3.56,5.605 -2.315,0.516 -4.612,-0.797 -5.41,-2.975 -0.07,-0.192 -0.148,-0.38 -0.194,-0.585 -1.462,-6.563 -3.544,-14.043 -7.886,-19.776 -4.974,-6.573 -12.571,-10.718 -20.613,-15.106 l -2.975,-1.63 c -4.619,-2.556 -9.148,-5.266 -13.591,-8.106 -11.445,-7.316 -22.277,-15.562 -32.393,-24.642 -2.361,-2.119 -4.694,-4.271 -6.975,-6.48 -5.99,-5.804 -12.672,-13.708 -11.196,-23.389 0.397,-2.596 0.532,-6.725 -0.763,-5.169 -24.36,29.236 -35.334,69.127 -29.353,106.71 3.119,19.6 11.74,39.269 24.073,56.516 10.377,14.51 23.372,27.311 38.021,36.853 2.703,-0.725 5.482,-0.997 8.286,-1.043 3.245,-0.054 6.523,0.2 9.76,0.466 6.033,0.495 11.73,0.963 16.477,-0.682 2.45,-0.849 5.126,0.45 5.971,2.9 0.848,2.449 -0.449,5.124 -2.9,5.973 -6.618,2.292 -13.587,1.72 -20.317,1.167 -2.762,-0.227 -5.457,-0.44 -8.015,-0.447 -3.965,-0.01 -7.593,0.487 -10.571,2.289 -0.048,0.029 -0.101,0.038 -0.15,0.064 -0.191,0.108 -0.382,0.219 -0.593,0.3 -3.679,1.417 -7.27,3.16 -10.755,5.177 -16.076,9.303 -29.814,24.705 -38.642,43.694 -7.687,16.539 -12.015,36.213 -12.984,58.558 -0.175,4.041 -0.278,8.139 -0.231,12.354 0.07,6.098 0.414,13.009 3.19,18.564 0.126,0.253 0.229,0.518 0.366,0.764 2.473,4.477 7.888,8.525 13.03,7.222 3.796,-0.962 6.836,-4.542 10.054,-8.331 1.022,-1.206 2.045,-2.407 3.095,-3.539 1.153,-1.245 2.362,-2.389 3.595,-3.491 14.258,-12.732 33.608,-16.287 52.381,-19.71 7.945,-1.449 16.159,-2.947 23.698,-5.123 25.209,-7.277 50.825,-28.208 64.961,-52.73 -8.624,-6.306 -15.77,-13.552 -20.566,-23.011 -1.171,-2.313 -0.248,-5.138 2.065,-6.31 2.32,-1.176 5.139,-0.246 6.311,2.064 7.574,14.942 23.013,24.05 40.92,33.584 l 14.859,7.91 c 0.062,0.032 0.151,0.079 0.252,0.132 0.016,-0.022 0.034,-0.046 0.053,-0.069 4.092,-5.281 6.226,-12.14 8.289,-18.774 1.756,-5.638 3.569,-11.468 3.505,-17.133 -0.085,-7.468 -4.303,-17.007 -9.526,-22.064 -4.217,0.92 -8.497,1.291 -12.746,1.291 -9.277,0 -18.405,-1.744 -26.398,-3.271 -2.547,-0.486 -4.218,-2.946 -3.732,-5.492 0.488,-2.544 2.93,-4.221 5.492,-3.73 12.583,2.402 28.239,5.394 41.168,0.286 9.776,-3.862 18.068,-12.172 25.166,-25.227 1.883,-3.461 3.685,-7.237 5.404,-11.374 1.21,-2.913 2.37,-5.914 3.508,-8.89 0.343,-0.897 0.693,-1.801 1.03,-2.687 4.862,-12.765 9.889,-25.965 18.76,-36.998 4.202,-5.228 9.178,-9.867 13.992,-14.356 8.816,-8.223 17.144,-15.989 20.074,-26.435 0.365,-1.295 0.362,-2.105 0.309,-2.453 -0.371,-0.099 -1.302,-0.199 -1.728,-0.245 -18.277,-2.003 -37.172,-4.068 -55.806,-5.249 z m 44.286,-13.057 c 1.31,-4.918 1.799,-10.433 2.326,-14.984 -0.273,0.031 -7.165,0.715 -7.434,0.739 -0.411,0.034 -0.823,0.048 -1.231,0.052 -0.777,3.697 -1.974,7.321 -3.482,10.767 -0.565,1.291 -1.164,2.561 -1.814,3.794 -0.091,0.201 -0.191,0.392 -0.308,0.575 -0.878,1.618 -1.816,3.181 -2.832,4.659 1.377,0.139 10.658,1.087 12.032,1.228 1.215,-1.975 2.078,-4.331 2.743,-6.83 z m 77.206,-70.042 c -1.237,-0.334 -2.454,-0.708 -3.662,-1.106 -0.024,-0.008 -0.046,-0.017 -0.07,-0.024 -7.259,-2.395 -14.027,-5.845 -20.601,-9.205 -6.219,-3.181 -12.094,-6.184 -18.329,-8.349 -0.211,-0.073 -0.436,-0.129 -0.65,-0.199 -6.471,-2.106 -14.282,-2.557 -21.361,-1.04 -0.126,0.03 -0.25,0.064 -0.378,0.085 -1.123,0.253 -2.226,0.549 -3.301,0.903 -0.344,0.17 -0.697,0.293 -1.075,0.376 -2.099,0.774 -4.044,1.783 -5.821,2.981 -1.283,0.865 -2.489,1.814 -3.55,2.905 4.997,6.79 8.194,15.536 9.055,25.273 0.234,2.647 0.389,5.389 0.472,8.168 0.242,8.141 -0.147,16.61 -1.093,24.01 8.012,-3.197 15.691,-8.812 18.609,-13.392 0.656,-1.032 1.272,-2.097 1.889,-3.163 1.804,-3.115 3.67,-6.335 6.526,-9.094 0.168,-0.162 0.379,-0.34 0.565,-0.508 1.569,-1.424 3.712,-3.051 6.19,-4.918 2.425,-1.826 5.706,-4.304 7.883,-6.318 -1.692,-2.331 -3.505,-4.49 -5.726,-6.274 -5.706,-4.583 3.37,-9.338 5.882,-7.319 5.027,4.04 8.236,9.02 11.338,13.839 2.93,4.55 5.699,8.851 9.779,11.911 1.178,0.885 2.421,1.689 3.659,2.499 2.375,1.55 4.832,3.153 7.067,5.302 5.317,5.115 3.624,18.52 10.022,21.298 6.05,2.627 10.076,-4.383 11.979,-8.897 0.512,-1.216 1.449,-3.104 2.745,-5.714 6.345,-12.774 9.761,-21.094 11.507,-26.541 1.849,-5.767 1.826,-8.311 1.36,-9.398 -0.706,-0.03 -2.091,0.447 -2.982,0.745 l -0.275,0.092 c -0.201,0.066 -0.41,0.113 -0.612,0.178 -11.876,3.802 -24.998,4.138 -37.041,0.894 z M 889.644,250.1 c -1.657,-5.829 -4.358,-11.295 -7.834,-16.282 -11.273,-16.173 -30.997,-27.146 -52.218,-27.738 -2.361,-0.065 -4.787,-0.011 -7.296,0.152 -1.689,1.083 -4.306,2.424 -8.546,4.572 -10.487,5.318 -28.042,14.217 -37.837,24.6 -6.432,6.816 -12.562,16.031 -18.492,24.942 -7.461,11.217 -13.907,20.906 -20.351,24.971 -0.375,0.236 -0.773,0.407 -1.178,0.527 3.344,1.615 6.675,3.089 10.075,4.306 9.019,-4.252 16.185,-15.181 23.125,-25.779 4.562,-6.969 9.279,-14.173 14.586,-19.486 12.883,-12.9 33.232,-18.805 53.097,-15.408 15.838,2.708 28.899,10.353 38.692,18.239 3.562,2.869 6.703,5.768 9.371,8.475 1.103,1.116 2.588,2.622 3.448,2.712 0.47,0.032 1.602,-0.844 1.96,-2.052 0.599,-2.003 -0.008,-4.66 -0.602,-6.751 z M 498.347,552.658 c -0.611,0.505 -1.114,1.155 -1.411,1.95 -1.44,3.841 -5.357,7.154 -11.645,9.849 -8.003,3.43 -16.587,5.12 -25.674,6.908 -9.694,1.908 -19.719,3.881 -29.064,8.165 -14.04,6.437 -25.332,17.612 -35.295,27.473 -1.843,1.824 -1.857,4.796 -0.034,6.639 0.919,0.928 2.127,1.393 3.338,1.393 1.194,0 2.389,-0.453 3.303,-1.358 9.868,-9.768 20.072,-19.868 32.599,-25.611 8.337,-3.821 17.385,-5.602 26.967,-7.488 9.165,-1.804 18.643,-3.669 27.561,-7.49 8.734,-3.743 14.366,-8.852 16.738,-15.183 0.91,-2.429 -0.321,-5.135 -2.749,-6.045 -0.019,-0.007 -0.038,-0.008 -0.057,-0.015 -1.615,-0.583 -3.337,-0.213 -4.577,0.813 z m 91.281,-119.792 c -3.143,3.877 -6.703,8.273 -8.786,13.597 -2.15,5.496 -2.448,11.144 -2.735,16.606 -0.238,4.52 -0.463,8.789 -1.715,12.638 -0.8,2.467 0.548,5.114 3.014,5.916 0.481,0.156 0.972,0.232 1.451,0.232 1.981,0 3.819,-1.261 4.465,-3.245 1.632,-5.024 1.9,-10.119 2.159,-15.046 0.261,-4.935 0.507,-9.598 2.102,-13.681 1.552,-3.966 4.493,-7.596 7.338,-11.106 5.57,-6.877 11.331,-13.988 18.696,-18.536 8.963,-5.536 20.221,-7.138 30.068,-8.204 2.577,-0.28 4.44,-2.595 4.161,-5.174 -0.279,-2.579 -2.604,-4.449 -5.174,-4.161 -10.87,1.176 -23.356,2.982 -33.988,9.55 -8.723,5.387 -15.275,13.476 -21.056,20.614 z m -54.955,-21.487 c -0.36,-2.394 -1.56,-4.563 -2.583,-6.757 -5.643,-12.1 -6.151,-26.496 -1.374,-38.964 0.756,-1.974 1.652,-3.959 1.71,-6.073 0.057,-2.113 -0.982,-4.434 -2.983,-5.115 -1.746,-0.594 -3.728,0.241 -4.978,1.596 -1.249,1.355 -1.908,3.141 -2.471,4.896 -3.369,10.515 -4.25,21.792 -2.724,32.719 0.446,3.194 3.056,18.513 7.865,23.357 0.739,0.745 1.527,1.259 2.37,1.426 0.876,0.173 1.809,-0.011 2.799,-0.643 0.65,-0.415 1.146,-1.001 1.53,-1.667 0.817,-1.417 1.072,-3.233 0.839,-4.775 z m -102.328,28.734 c -1.187,2.304 -0.282,5.136 2.024,6.323 7.824,4.032 15.975,9.547 24.014,15.78 12.613,9.778 24.95,21.335 35.299,31.799 -14.231,-5.107 -29.465,-6.689 -45.172,-8.29 -0.334,-0.034 -0.661,-0.03 -0.98,0.003 -2.175,0.228 -3.938,1.943 -4.166,4.191 -0.194,1.903 0.781,3.649 2.338,4.544 0.554,0.318 1.178,0.534 1.854,0.604 25.564,2.605 44.205,5.386 59.985,16.454 1.221,0.857 -0.548,1.624 -2.193,3.12 -1.914,1.747 -2.054,4.715 -0.307,6.632 3.296,3.617 8.19,5.605 13.422,5.605 1.499,0 3.024,-0.163 4.548,-0.497 1.105,-0.243 2.156,-0.595 3.178,-0.995 0.185,-0.061 0.363,-0.142 0.541,-0.227 5.042,-2.136 8.916,-6.083 10.454,-10.939 0.784,-2.472 -0.585,-5.111 -3.056,-5.894 -0.825,-0.261 -1.152,-2.583 -0.395,-3.9 6.726,-11.712 18.692,-26.567 26.143,-33.32 1.921,-1.74 2.068,-4.708 0.328,-6.631 -1.744,-1.92 -4.711,-2.068 -6.632,-0.327 -3.843,3.484 -23.713,24.56 -31.218,42.046 -9.237,-21.245 -15.738,-52.569 -8.54,-68.491 1.068,-2.362 0.018,-5.144 -2.343,-6.212 -2.361,-1.067 -5.144,-0.018 -6.212,2.344 -6.953,15.378 -3.753,40.441 3.071,61.731 -11.8,-12.464 -27.614,-27.963 -44.126,-40.736 -8.477,-6.558 -17.135,-12.411 -25.534,-16.739 -2.302,-1.189 -5.138,-0.282 -6.325,2.022 z"
   id="path4-10-9-0-7-7"
   sodipodi:nodetypes="cccscssscccsscscscssssccsccsccscccsccccccscccccccccscscccsccccsssccscsscscssscsccsccccsccscssccsscsscscsccccscscssccccscscscsccccsssccccssccsccscscssccscszccsccscccccssssccccscsccccssscsscsccscsccssscssscccsscsssscsssccccccccscssccscscsccscssscsccscccscsccscscccsccsccssssssssscssscsccccscccccccsccccccsccsccccscscsccccscccccscccsscccccscccsccccscccccccsccccssscccccscccsscscscsssccccsccccscccscssccsccscccccsccsscsccssccsscsscsccsccsssccccscccsccccsscccsccssscssssccccscscscccssccsccccccscssccscsscccccccccccscccccssccscccccscscccsscscssscccsscscsccscssccccsccccssccccscssssssccsssscscsscssccccccscccccscsscssssscscccsccscscssscccscscscssscscs" />

</g>
      <path
         fill="#fdd8e0"
         d="m 56.052077,87.834892 c 0.0706,-0.244303 0.1042,-0.498283 0.1151,-0.754508 -0.01502,0.01273 -0.03034,0.02505 -0.04497,0.03826 -0.119295,0.107788 -0.220089,0.234795 -0.31345,0.369318 0.07986,0.151347 0.146356,0.314764 0.197596,0.489247 0.01632,-0.04706 0.03186,-0.09436 0.04573,-0.14232 z m 3.7788,1.742469 c 0.152998,-0.110173 0.336758,-0.195671 0.519015,-0.261666 -0.189671,-0.03534 -0.380068,-0.01928 -0.563307,0.03376 0.01325,0.05105 0.02532,0.102485 0.03418,0.154906 0.0042,0.02441 0.007,0.0487 0.01012,0.073 z m -0.583274,0.04305 c -0.159805,0.116608 -0.317468,0.276132 -0.483065,0.427369 -0.265489,0.29102 -0.503166,0.600279 -0.735613,0.957999 0.139908,0.05431 0.275994,0.118551 0.406126,0.193901 0.170991,0.09909 0.337152,0.230249 0.467307,0.382925 l 0.356981,-0.714422 c 0.174544,-0.320899 0.361587,-0.80512 0.27504,-1.31526 -0.0054,-0.03217 -0.01364,-0.06359 -0.02105,-0.09519 -0.09214,0.04649 -0.181254,0.101063 -0.265721,0.16268 z m -4.222717,-2.018009 c -0.06643,-0.149164 -0.197813,-0.169502 -0.312887,-0.121322 0.195517,0.192027 0.355618,0.434295 0.463122,0.711449 0.104188,0.268703 0.160662,0.570631 0.170339,0.901802 0.0034,0.116249 0.09126,0.116461 0.129345,0.03397 0.06106,-0.13225 0.126072,-0.261865 0.189783,-0.388845 0.05013,-0.09996 0.09913,-0.198077 0.145839,-0.295866 -0.0271,-0.188206 -0.08133,-0.428701 -0.186131,-0.672771 -0.10985,0.174439 -0.2193,0.348822 -0.349215,0.501104 -0.06976,-0.226303 -0.152297,-0.449753 -0.250195,-0.669524 z m -3.992935,4.001578 c 0.837435,0.109702 1.674892,0.219441 2.512319,0.329172 0.312269,0.0409 0.760786,0.02705 1.006143,0.257234 0.0957,0.01955 0.193321,0.04033 0.294179,0.06315 -0.36147,-0.546708 -0.946963,-0.931278 -1.563515,-1.007427 -0.07981,-0.01 -0.136189,-0.08238 -0.126361,-0.162013 0.0099,-0.07962 0.08238,-0.136189 0.162012,-0.126361 0.792345,0.09806 1.536705,0.64073 1.91767,1.389514 0.165128,0.04378 0.333952,0.09761 0.491515,0.173633 -0.279321,-0.353717 -0.408974,-0.77456 -0.269255,-1.111474 -0.343714,-0.429797 -0.720822,-0.865828 -1.204301,-1.131531 -0.05023,-0.02764 -0.102037,-0.05246 -0.154441,-0.07597 -0.0058,-0.0021 -0.01153,-0.0045 -0.01709,-0.0074 -0.106957,-0.04688 -0.21756,-0.0862 -0.331051,-0.11598 -0.484372,-0.127101 -1.014245,-0.09775 -1.473174,0.09427 -0.604676,0.253104 -1.094003,0.792842 -1.292084,1.418122 0.0133,0.006 0.02876,0.01059 0.04744,0.01305 z m 3.330545,-2.506066 c 0.08309,0.307536 0.104905,0.640965 -0.01067,0.904625 0.01344,0.007 0.02715,0.01343 0.0405,0.02074 0.257437,0.141481 0.48404,0.323176 0.690625,0.524474 0.03414,0.03327 0.09578,-0.03059 0.09473,-0.144752 -0.0046,-0.501582 -0.0095,-1.545616 -0.273408,-2.105433 -0.104832,-0.222358 -0.239231,-0.425668 -0.397338,-0.589709 -0.0035,0.01325 -0.0063,0.02668 -0.0077,0.04032 -0.04625,0.449829 -0.09126,0.899792 -0.136708,1.349735 z m 8.711854,4.243355 c 0.02385,-0.04349 0.04307,-0.08684 0.05988,-0.130065 -0.210375,-0.572575 -0.71452,-1.055889 -1.344995,-1.240266 -0.07015,-0.02049 -0.143184,-0.03792 -0.219556,-0.05275 -0.05906,0.01915 -0.147911,0.03873 -0.29168,0.06972 -0.35563,0.0768 -0.950923,0.205273 -1.325621,0.439102 -0.246033,0.153482 -0.501868,0.381137 -0.74933,0.601263 -0.311394,0.277119 -0.580409,0.516478 -0.805196,0.587532 -0.01308,0.0041 -0.02633,0.0061 -0.0394,0.0065 0.0874,0.0746 0.175517,0.144873 0.267718,0.207999 0.303323,-0.05643 0.603625,-0.327244 0.894564,-0.589929 0.191268,-0.172748 0.38902,-0.351312 0.589579,-0.468646 0.486886,-0.284909 1.142287,-0.301829 1.710149,-0.04415 0.452749,0.205432 0.783613,0.536814 1.014775,0.849744 0.09718,-0.05057 0.180707,-0.129454 0.239107,-0.236075 z m -4.558183,0.764924 c -6.56e-4,-4.28e-4 -0.0012,-8.7e-4 -0.0019,-0.0013 -0.198446,-0.128689 -0.373911,-0.285096 -0.544277,-0.437287 -0.161146,-0.144045 -0.313396,-0.280061 -0.483,-0.393824 -0.0057,-0.0038 -0.01204,-0.0073 -0.01789,-0.01106 -0.204377,0.0075 -0.409471,-0.0046 -0.610999,-0.03941 -0.127083,-0.02199 -0.251435,-0.06073 -0.370801,-0.112495 -0.04519,0.01581 -0.08874,0.03474 -0.129063,0.05906 0.09623,0.242462 0.123227,0.52933 0.07253,0.827511 -0.01378,0.08106 -0.03068,0.164342 -0.05002,0.248167 0.26067,0.08942 0.534559,0.139311 0.809862,0.143829 0.05814,-0.0303 0.135058,-0.06216 0.223884,-0.09858 0.08692,-0.03561 0.204577,-0.084 0.285549,-0.127183 -0.03233,-0.08305 -0.06964,-0.161908 -0.122101,-0.232744 -0.134782,-0.181977 0.174197,-0.253011 0.233523,-0.172856 0.118725,0.160393 0.175657,0.334641 0.230651,0.503231 0.05196,0.159188 0.101054,0.309659 0.199133,0.433284 0.02831,0.03574 0.05919,0.06956 0.08988,0.103529 0.05891,0.06504 0.119855,0.132314 0.169869,0.214184 0.118962,0.194844 -0.03698,0.582747 0.132685,0.716137 0.16044,0.126137 0.335987,-0.05205 0.428393,-0.172202 0.02487,-0.03237 0.06774,-0.08152 0.12703,-0.149456 0.29022,-0.332484 0.457799,-0.554666 0.552833,-0.703977 0.008,-0.07521 0.0078,-0.151708 -0.0023,-0.229353 -0.0018,-0.01397 -0.0048,-0.02748 -0.007,-0.04128 -0.385245,0.02057 -0.780634,-0.07247 -1.115571,-0.264099 -0.03441,-0.01968 -0.06792,-0.04047 -0.100944,-0.06187 z m -0.418499,0.867666 c -0.136148,-0.149098 -0.23918,-0.328214 -0.299605,-0.520845 -0.06036,0.01804 -0.116712,0.0387 -0.171291,0.06078 0.06913,0.330969 0.218887,0.624744 0.435478,0.911522 0.06883,0.09113 0.145047,0.168707 0.225664,0.232088 -0.02143,-0.16922 0.03046,-0.351958 -0.04613,-0.504078 -0.03465,-0.06875 -0.09221,-0.122566 -0.144111,-0.179466 z m -2.142434,-1.925782 c -0.218337,-0.264523 -0.58391,-0.370367 -0.939657,-0.456359 -0.08827,-0.02131 -0.173612,-0.04095 -0.25769,-0.05981 0.06526,0.159928 0.11467,0.330186 0.185721,0.486834 0.163346,0.176261 0.297418,0.368384 0.398841,0.569598 0.21803,0.22839 0.479309,0.413137 0.764529,0.547609 0.01463,-0.066 0.02757,-0.129585 0.03739,-0.187215 0.06021,-0.353811 -0.0087,-0.682077 -0.18913,-0.900654 z m 3.01669,0.969007 c 0.215372,0.08662 0.448921,0.130658 0.680387,0.127416 -0.05604,-0.14033 -0.132395,-0.271658 -0.221956,-0.395319 -0.007,-0.0096 -0.01268,-0.01897 -0.01802,-0.02824 -0.141566,0.116468 -0.287196,0.2216 -0.44041,0.296144 z m -3.343331,-2.856579 c 0.126644,-0.122015 0.310075,-0.220523 0.559803,-0.283368 -0.01244,-0.07608 -0.02444,-0.152384 -0.03388,-0.228693 -0.0098,-0.07961 0.04667,-0.152148 0.126328,-0.162021 0.07987,-0.0098 0.152117,0.04679 0.161983,0.12635 0.0086,0.06983 0.01939,0.140534 0.0309,0.211276 0.246734,-0.03315 0.497702,-0.03671 0.745752,-0.01148 0.116666,-0.730361 0.149215,-1.457619 0.175935,-2.07025 0.0035,-0.08014 0.07137,-0.142277 0.151485,-0.138785 0.08026,0.0035 0.142322,0.07132 0.138823,0.151463 -0.02711,0.620688 -0.06011,1.356368 -0.178526,2.10012 0.08346,0.01633 0.166132,0.03617 0.247917,0.05926 0.273553,-0.437689 0.496354,-0.739143 0.767508,-1.036514 0.03639,-0.365563 0.02902,-0.735253 -0.02618,-1.102648 -0.07156,-0.47668 -0.214974,-1.068537 -0.512616,-1.502142 -0.149213,-0.150511 -0.303133,-0.296499 -0.461098,-0.437918 -0.343212,-0.186669 -0.726274,-0.136994 -1.060467,0.04268 5.26e-4,0.347515 -0.03288,0.697901 -0.131117,1.037669 -0.06167,0.213441 -0.147374,0.417408 -0.240496,0.61527 -1.31e-4,2.54e-4 -2.39e-4,5.45e-4 -4.15e-4,8.51e-4 -0.05391,0.114486 -0.110266,0.226984 -0.165963,0.338057 -0.100624,0.200724 -0.204734,0.408274 -0.28791,0.616872 -0.197819,0.495789 -0.227098,1.05551 -0.08403,1.579584 0.02586,0.03142 0.05084,0.06289 0.07626,0.09436 z M 60.257,93.022492 c -0.125478,0.07344 -0.252803,0.17733 -0.384476,0.293035 0.424241,-0.10896 0.851754,-0.138462 1.311965,-0.07119 0.42385,0.06199 0.775971,0.245429 1.17735,0.368795 0.05204,0.01599 0.104391,0.02557 0.156122,0.02897 -0.200758,-0.246665 -0.4694,-0.491983 -0.81757,-0.649883 -0.48315,-0.219167 -1.036395,-0.207782 -1.443391,0.03027 z m 0.552,-1.454453 c 0.317858,-0.0021 0.586502,0.01938 0.826796,0.06686 0.05041,-0.07202 0.109612,-0.137329 0.175217,-0.195578 -0.25757,-0.0927 -0.522019,-0.165035 -0.749875,-0.215292 0.117646,-0.155022 0.195739,-0.335714 0.23262,-0.523446 -0.191393,0.124218 -0.365285,0.275006 -0.512262,0.449395 -0.03738,0.04432 -0.09556,0.06072 -0.148052,0.04695 -0.02023,-0.0053 -0.03961,-0.0151 -0.05667,-0.02946 -0.06138,-0.05171 -0.06917,-0.143328 -0.01749,-0.204718 0.209601,-0.248712 0.467591,-0.455199 0.753421,-0.611003 -0.03055,-0.330633 -0.199993,-0.649569 -0.534976,-0.862358 -0.0037,9.1e-4 -0.0075,0.0016 -0.01128,0.0025 -0.450577,0.114109 -0.776553,0.27966 -0.925455,0.46858 -0.02989,0.411863 -0.181216,0.779353 -0.324207,1.042056 l -0.409942,0.820551 c 0.520774,-0.163283 1.093611,-0.251037 1.70215,-0.255046 z m -2.498765,1.770775 c 0.165603,-0.05239 0.437112,-0.293938 0.699704,-0.527593 0.256479,-0.228157 0.521665,-0.464138 0.788595,-0.630691 0.120952,-0.07546 0.259344,-0.140329 0.404035,-0.196412 0.115243,-0.04468 0.08374,-0.100292 -0.04758,-0.08456 -0.350444,0.04192 -0.685977,0.116255 -1.001399,0.219156 0.0019,0.01852 0.0039,0.03707 0.0044,0.05579 0.0013,0.04852 -0.0022,0.09771 -0.01098,0.147408 -0.07256,0.408919 -0.478211,0.672438 -0.873292,0.800469 -0.124326,0.04028 -0.251479,0.07134 -0.380044,0.09474 0.09293,0.07643 0.182423,0.155738 0.269938,0.233917 0.01537,0.01372 0.07976,-0.0911 0.146628,-0.112229 z m 3.632099,-1.622648 c 0.516006,0.169663 0.952885,0.516644 1.23743,0.948956 -0.07296,-0.346498 -0.325704,-0.650823 -0.611082,-0.853571 -0.127948,-0.09087 -0.280313,-0.173043 -0.44374,-0.246349 -0.06719,0.04222 -0.129174,0.09253 -0.182608,0.150964 z"
         id="path2-2-9-3-0-0-4"
         style="fill:#faa197;fill-opacity:1;stroke-width:0.0309423"
         sodipodi:nodetypes="sccccssscccssscccccccsssccssccccsssscccccccccccsccsscccsssccccccccccccccccsccccccsccccsccccssccccssccscsccsccsccsssccccccssscccsssccccccsssccccccccsccccsssccsccsssccccssccccccccssscssccscscsssccccc" />
      <path
         d="m 47.88087,98.6012 c -0.01822,-0.117097 -0.02194,-0.237395 -0.01276,-0.358788 0.0765,0.0203 0.155489,0.04784 0.23637,0.07632 0.197072,0.06943 0.401155,0.141285 0.617234,0.124632 0.08002,-0.0061 0.139842,-0.076 0.133703,-0.155991 -0.0061,-0.07994 -0.07594,-0.139856 -0.155931,-0.133687 -0.154992,0.01195 -0.321823,-0.0468 -0.498497,-0.108991 -0.09479,-0.03338 -0.190912,-0.0667 -0.288448,-0.0906 0.02912,-0.124126 0.0709,-0.247166 0.122508,-0.367022 0.01408,0.01387 0.03106,0.02523 0.05074,0.03264 0.744648,0.278732 1.280715,0.508362 1.666072,0.963545 0.02981,0.03524 -0.02915,0.0443 -0.09014,0.07616 -0.071,0.03725 -0.0985,0.124984 -0.06127,0.196078 0.07024,0.134139 0.201101,0.232073 0.357689,0.273162 0.04486,0.01177 0.09179,0.01887 0.140021,0.02084 0.03498,0.0014 0.0692,-8.75e-4 0.102929,-0.0048 0.006,-3.73e-4 0.01198,-0.0014 0.01797,-0.0025 0.167677,-0.02433 0.31462,-0.112037 0.398788,-0.245293 0.04288,-0.06783 0.02263,-0.157562 -0.04518,-0.200402 -0.02264,-0.01429 -0.01419,-0.08635 0.01881,-0.119826 0.293283,-0.297706 0.768077,-0.648327 1.044113,-0.791922 0.07116,-0.03699 0.09887,-0.124665 0.06189,-0.195883 -0.03712,-0.07116 -0.124755,-0.09889 -0.195922,-0.06187 -0.142379,0.07409 -0.902589,0.548828 -1.264533,1.013227 -0.109607,-0.708386 -0.05817,-1.696939 0.2823,-2.11694 0.05051,-0.0623 0.04094,-0.153813 -0.02134,-0.20432 -0.06228,-0.05048 -0.153813,-0.04094 -0.204328,0.02137 -0.328867,0.405644 -0.429927,1.180886 -0.392892,1.871668 -0.255277,-0.465707 -0.606853,-1.053772 -1.000729,-1.565733 0.509586,-0.343987 1.123013,-0.52157 1.734673,-0.610013 0.144244,-0.02085 0.297164,-0.03405 0.445538,-0.02675 0.01627,0.0281 0.03581,0.04967 0.05973,0.06129 0.02486,0.01206 0.05423,0.01388 0.08882,0.0027 0.02271,-0.0073 0.04216,-0.02096 0.05888,-0.03788 0.06605,0.01417 0.12962,0.03427 0.189461,0.06174 -0.386051,0.399371 -0.673339,0.874531 -0.951022,1.334297 -0.0415,0.06867 -0.01944,0.157951 0.04925,0.199391 0.06859,0.04157 0.157914,0.01946 0.199391,-0.04925 0.270816,-0.448228 0.550764,-0.91175 0.916875,-1.28865 0.0066,-0.0068 0.01376,-0.01379 0.02059,-0.02067 0.06951,0.07998 0.119863,0.174223 0.154039,0.27561 0.02772,0.08223 0.04558,0.168615 0.05641,0.254374 0.148772,1.178805 -0.675427,2.398812 -1.73161,2.872338 -0.278837,0.12501 -0.589564,0.190147 -0.894075,0.179052 -0.04374,-0.03006 -0.09819,-0.03251 -0.143348,-0.01157 -0.183098,-0.02162 -0.361805,-0.07168 -0.527347,-0.155333 -0.451551,-0.227798 -0.678576,-0.581485 -0.743141,-0.973028 -7.46e-4,-0.0042 -0.0017,-0.0084 -0.0023,-0.01269 z m 0.306796,-1.253536 c 0.457522,0.171271 0.901067,0.338267 1.286849,0.60287 -0.227586,-0.394461 -0.506028,-0.837232 -0.806732,-1.228934 -0.199051,0.169617 -0.374052,0.382782 -0.509471,0.618457 0.0098,0.0015 0.01966,0.004 0.02935,0.0076 z"
         style="fill:#449193;fill-opacity:1;stroke-width:0.0309423"
         id="path1" />
    </g>
  </g>
</svg>
